<svg width="38" height="38" viewBox="0 0 38 38" fill="none" xmlns="http://www.w3.org/2000/svg">
<g id="choice 1" clip-path="url(#clip0_212_1651)">
<g id="Group">
<path id="Vector (Stroke)" fill-rule="evenodd" clip-rule="evenodd" d="M19.5566 1.11328C19.5566 0.498433 20.0551 0 20.6699 0H32.8418C33.4566 0 33.9551 0.498433 33.9551 1.11328V13.2852C33.9551 13.9 33.4566 14.3984 32.8418 14.3984H20.6699C20.0551 14.3984 19.5566 13.9 19.5566 13.2852V1.11328ZM21.7832 2.22656V12.1719H31.7285V2.22656H21.7832Z" fill="#1E1E73"/>
<path id="Vector (Stroke)_2" fill-rule="evenodd" clip-rule="evenodd" d="M16.4395 13.2852C16.4395 13.9 15.941 14.3984 15.3262 14.3984L3.1543 14.3984C2.53945 14.3984 2.04102 13.9 2.04102 13.2852L2.04102 1.11328C2.04102 0.498433 2.53945 -6.23773e-10 3.1543 -5.96181e-10L15.3262 0C15.941 0 16.4395 0.498433 16.4395 1.11328L16.4395 13.2852ZM14.2129 12.1719L14.2129 2.22656L4.26758 2.22656L4.26758 12.1719L14.2129 12.1719Z" fill="#1E1E73"/>
<path id="Vector (Stroke)_3" fill-rule="evenodd" clip-rule="evenodd" d="M16.4395 30.8008C16.4395 31.4156 15.941 31.9141 15.3262 31.9141L3.1543 31.9141C2.53945 31.9141 2.04102 31.4156 2.04102 30.8008L2.04102 18.6289C2.04102 18.0141 2.53945 17.5156 3.1543 17.5156L15.3262 17.5156C15.941 17.5156 16.4395 18.0141 16.4395 18.6289L16.4395 30.8008ZM14.2129 29.6875L14.2129 19.7422L4.26758 19.7422L4.26758 29.6875L14.2129 29.6875Z" fill="#1E1E73"/>
<path id="Vector (Stroke)_4" fill-rule="evenodd" clip-rule="evenodd" d="M26.3105 18.8516C25.6956 18.8516 25.1972 19.35 25.1972 19.9648V25.8296C25.1972 26.1552 25.0546 26.4645 24.8071 26.676C24.594 26.8581 24.3215 26.952 24.0446 26.9422C22.0397 27.0292 20.5789 28.8887 20.9806 30.8597C20.9859 30.8855 20.9902 30.9116 20.9937 30.9377C21.091 31.6817 21.4781 32.8909 21.9119 34.0602C22.156 34.7179 22.4002 35.3251 22.5839 35.7679L31.9358 35.773C32.0538 35.4798 32.2017 35.1088 32.3647 34.6911C32.7677 33.6591 33.2572 32.3585 33.6203 31.2464L33.6205 31.2458C34.03 29.9942 33.2715 28.6647 31.9877 28.381L31.9875 28.381L28.4044 27.5885L28.373 27.5839C27.8275 27.5026 27.4237 27.0343 27.4237 26.4827V19.9648C27.4237 19.35 26.9253 18.8516 26.3105 18.8516ZM32.6844 36.8867L33.7127 37.3132C33.5402 37.7292 33.1341 38.0002 32.6838 38L21.8471 37.9941C21.4068 37.9938 21.0079 37.7341 20.8297 37.3315C20.706 37.0521 20.2653 36.0231 19.8244 34.8347C19.4008 33.6929 18.932 32.2873 18.7912 31.2656C18.2066 28.2921 20.1351 25.4849 22.9706 24.8472V19.9648C22.9706 18.1203 24.4659 16.625 26.3105 16.625C28.155 16.625 29.6503 18.1203 29.6503 19.9648V25.5837L32.4682 26.2069C32.4682 26.2069 32.4683 26.2069 32.4683 26.2069C35.0391 26.7752 36.5546 29.4368 35.7369 31.9375C35.3541 33.1099 34.8465 34.4567 34.4388 35.5009C34.2342 36.0251 34.0531 36.4771 33.923 36.7984C33.858 36.9591 33.8056 37.0872 33.7695 37.1754C33.7607 37.1968 33.7529 37.2158 33.746 37.2324C33.7388 37.2501 33.7327 37.2649 33.7277 37.2769L33.7128 37.3129L33.7128 37.3131C33.7127 37.3131 33.7127 37.3132 32.6844 36.8867Z" fill="#1E1E73"/>
<path id="Vector (Stroke)_5" fill-rule="evenodd" clip-rule="evenodd" d="M24.084 24.7148C24.6988 24.7148 25.1973 25.2133 25.1973 25.8281V30.207C25.1973 30.8219 24.6988 31.3203 24.084 31.3203C23.4691 31.3203 22.9707 30.8219 22.9707 30.207V25.8281C22.9707 25.2133 23.4691 24.7148 24.084 24.7148Z" fill="#1E1E73"/>
<path id="Vector (Stroke)_6" fill-rule="evenodd" clip-rule="evenodd" d="M29.4171 4.94619C29.8519 5.38095 29.8519 6.08584 29.4171 6.52061L27.0792 8.8585C26.6444 9.29326 25.9395 9.29326 25.5048 8.8585L24.0946 7.44834C23.6599 7.01358 23.6599 6.30869 24.0946 5.87392C24.5294 5.43916 25.2343 5.43916 25.669 5.87392L26.292 6.49687L27.8427 4.94619C28.2774 4.51143 28.9823 4.51143 29.4171 4.94619Z" fill="#1E1E73"/>
</g>
</g>
<defs>
<clipPath id="clip0_212_1651">
<rect width="38" height="38" fill="white"/>
</clipPath>
</defs>
</svg>
