<svg width="80" height="81" viewBox="0 0 80 81" fill="none" xmlns="http://www.w3.org/2000/svg">
<g id="empty-box 1">
<g id="Exp-2.-F">
<path id="Vector" fill-rule="evenodd" clip-rule="evenodd" d="M65 45.0212H15V68.1612C15 69.265 15.7238 70.2387 16.7813 70.5562C21.805 72.0625 35.9325 76.3012 39.2812 77.3062C39.75 77.4462 40.25 77.4462 40.7188 77.3062C44.0675 76.3012 58.195 72.0625 63.2188 70.5562C64.2763 70.2387 65 69.265 65 68.1612C65 62.3662 65 45.0212 65 45.0212Z" fill="#CADCF0"/>
<path id="Vector_2" fill-rule="evenodd" clip-rule="evenodd" d="M65 45.0212H40C40 45.0212 39.7575 77.4112 40 77.4112C40.2425 77.4112 40.4838 77.3762 40.7188 77.3062C44.0675 76.3012 58.195 72.0625 63.2188 70.5562C64.2763 70.2387 65 69.265 65 68.1612C65 62.3662 65 45.0212 65 45.0212Z" fill="#A4BBDB"/>
<path id="Vector_3" fill-rule="evenodd" clip-rule="evenodd" d="M40 53.1325L15 45.0212C15 45.0212 10.6163 51.5212 8.65626 54.4262C8.43626 54.7525 8.38251 55.1612 8.51001 55.5325C8.63876 55.9037 8.93251 56.1925 9.30626 56.315C14.055 57.8575 28.1125 62.425 31.8 63.6225C32.3288 63.795 32.9088 63.5962 33.2213 63.135C34.8975 60.6612 40 53.1325 40 53.1325Z" fill="#E9F3FC"/>
<path id="Vector_4" fill-rule="evenodd" clip-rule="evenodd" d="M65 45.0212L40 53.1325C40 53.1325 45.1025 60.6612 46.7788 63.135C47.0913 63.5962 47.6713 63.795 48.2 63.6225C51.8875 62.425 65.945 57.8575 70.6938 56.315C71.0675 56.1925 71.3613 55.9037 71.49 55.5325C71.6175 55.1612 71.5638 54.7525 71.3438 54.4262C69.3838 51.5212 65 45.0212 65 45.0212Z" fill="#E9F3FC"/>
<path id="Vector_5" fill-rule="evenodd" clip-rule="evenodd" d="M33.9488 27.9825C33.6363 27.5238 33.0575 27.325 32.5288 27.4975C28.8438 28.6938 14.7825 33.2625 10.0338 34.8063C9.66002 34.9275 9.36502 35.2163 9.23752 35.5875C9.11002 35.9588 9.16377 36.3688 9.38377 36.6938C11.1888 39.3713 15 45.0213 15 45.0213L40 36.8825C40 36.8825 35.51 30.2788 33.9488 27.9825Z" fill="#CADCF0"/>
<path id="Vector_6" fill-rule="evenodd" clip-rule="evenodd" d="M70.6162 36.6938C70.8363 36.3688 70.89 35.9588 70.7625 35.5875C70.635 35.2163 70.34 34.9275 69.9662 34.8063C65.2175 33.2625 51.1563 28.6938 47.4713 27.4975C46.9425 27.325 46.3637 27.5238 46.0512 27.9825C44.49 30.2788 40 36.8825 40 36.8825L65 45.0213C65 45.0213 68.8113 39.3713 70.6162 36.6938Z" fill="#E9F3FC"/>
<path id="Vector_7" fill-rule="evenodd" clip-rule="evenodd" d="M65 45.0213L40 36.8825L15 45.0213L40 53.1325L65 45.0213Z" fill="#CADCF0"/>
<path id="Vector_8" fill-rule="evenodd" clip-rule="evenodd" d="M40 53.1325V36.8825L15 45.0213L40 53.1325Z" fill="#A4BBDB"/>
<g id="Group">
<path id="Vector_9" fill-rule="evenodd" clip-rule="evenodd" d="M34.9775 40.4725C34.4575 40.1325 33.9888 39.7688 33.5725 39.3875C33.065 38.9213 32.2738 38.955 31.8063 39.4638C31.34 39.9713 31.3738 40.7625 31.8825 41.2288C32.3938 41.6988 32.97 42.1463 33.61 42.565C34.1875 42.9425 34.9625 42.78 35.34 42.2025C35.7175 41.625 35.555 40.85 34.9775 40.4725Z" fill="#347BFA"/>
<path id="Vector_10" fill-rule="evenodd" clip-rule="evenodd" d="M31.0825 36.6325C30.7113 36.1288 30.3975 35.6225 30.14 35.1163C29.8275 34.5013 29.0738 34.2562 28.4588 34.5687C27.8438 34.8812 27.5988 35.635 27.9113 36.25C28.2288 36.8725 28.6138 37.4962 29.07 38.115C29.4788 38.67 30.2613 38.7888 30.8175 38.38C31.3725 37.97 31.4913 37.1875 31.0825 36.6325Z" fill="#347BFA"/>
<path id="Vector_11" fill-rule="evenodd" clip-rule="evenodd" d="M29.255 31.5313C29.2675 31.0275 29.3413 30.5388 29.4763 30.07C29.6663 29.4075 29.2825 28.7138 28.6188 28.5238C27.9563 28.3338 27.2625 28.7175 27.0725 29.3813C26.8813 30.0513 26.7738 30.75 26.755 31.4688C26.7388 32.1588 27.2838 32.7325 27.9738 32.7488C28.6638 32.7663 29.2375 32.2213 29.255 31.5313Z" fill="#347BFA"/>
<path id="Vector_12" fill-rule="evenodd" clip-rule="evenodd" d="M31.1775 27.3562C31.4988 27.0587 31.8588 26.7837 32.2525 26.535C32.8363 26.1662 33.0113 25.3937 32.6438 24.8112C32.275 24.2275 31.5025 24.0525 30.9188 24.42C30.39 24.7537 29.91 25.1225 29.4788 25.5225C28.9725 25.9912 28.9425 26.7825 29.4113 27.2887C29.88 27.795 30.6713 27.825 31.1775 27.3562Z" fill="#347BFA"/>
<path id="Vector_13" fill-rule="evenodd" clip-rule="evenodd" d="M35.8263 25.2C36.455 25.0838 37.1213 25.0088 37.8238 24.98C38.5138 24.95 39.0488 24.3663 39.02 23.6775C38.9913 22.9888 38.4075 22.4525 37.7175 22.4813C36.8925 22.5163 36.11 22.605 35.3713 22.7413C34.6938 22.8675 34.2438 23.52 34.37 24.1975C34.495 24.8763 35.1475 25.325 35.8263 25.2Z" fill="#347BFA"/>
<path id="Vector_14" fill-rule="evenodd" clip-rule="evenodd" d="M42.3413 25.1263C43.4075 25.1388 44.4 25.1013 45.3213 25.02C46.0088 24.9588 46.5175 24.3513 46.4563 23.6638C46.395 22.9775 45.7875 22.4688 45.1 22.53C44.2563 22.6038 43.3475 22.6388 42.37 22.6263C41.68 22.6188 41.1138 23.1725 41.1063 23.8613C41.0975 24.5513 41.6513 25.1188 42.3413 25.1263Z" fill="#347BFA"/>
<path id="Vector_15" fill-rule="evenodd" clip-rule="evenodd" d="M49.43 24.2538C50.6675 23.875 51.7125 23.39 52.5875 22.8338C53.1688 22.4625 53.3413 21.69 52.97 21.1075C52.6 20.5263 51.8263 20.3538 51.2438 20.725C50.54 21.1725 49.6963 21.5575 48.6988 21.8625C48.04 22.065 47.6675 22.7638 47.87 23.4238C48.0713 24.0838 48.7713 24.455 49.43 24.2538Z" fill="#347BFA"/>
<path id="Vector_16" fill-rule="evenodd" clip-rule="evenodd" d="M55.7925 19.335C56.3825 18.115 56.6088 16.825 56.5513 15.5812C56.5188 14.8912 55.9325 14.3587 55.2438 14.3912C54.555 14.4237 54.0213 15.0087 54.0538 15.6975C54.0938 16.5425 53.9413 17.4187 53.5413 18.2475C53.2413 18.8687 53.5013 19.6175 54.1225 19.9175C54.7438 20.2175 55.4925 19.9562 55.7925 19.335Z" fill="#347BFA"/>
<path id="Vector_17" fill-rule="evenodd" clip-rule="evenodd" d="M54.9963 11.1612C54.085 9.93 52.8488 9.0725 51.5013 8.79625C50.825 8.65875 50.1638 9.09375 50.025 9.77C49.8875 10.4462 50.3238 11.1075 50.9988 11.2462C51.7763 11.405 52.4613 11.9387 52.9875 12.65C53.3988 13.2037 54.1825 13.32 54.7363 12.91C55.2913 12.4987 55.4075 11.715 54.9963 11.1612Z" fill="#347BFA"/>
</g>
<path id="Vector_18" fill-rule="evenodd" clip-rule="evenodd" d="M38.6663 9.03875C40.0188 1.38 51.74 1.875 44.9163 9.03875H38.6663Z" fill="#CADCF0"/>
<path id="Vector_19" fill-rule="evenodd" clip-rule="evenodd" d="M38.6663 10.9788C40.0188 18.6363 51.74 18.1425 44.9163 10.9788H38.6663Z" fill="#CADCF0"/>
<path id="Vector_20" fill-rule="evenodd" clip-rule="evenodd" d="M38.5538 11.2712H46.9238C47.6138 11.2712 48.1738 10.7112 48.1738 10.0212C48.1738 9.33124 47.6138 8.77124 46.9238 8.77124H38.5538C37.865 8.77124 37.3038 9.33124 37.3038 10.0212C37.3038 10.7112 37.865 11.2712 38.5538 11.2712Z" fill="#347BFA"/>
</g>
</g>
</svg>
