<svg width="250" height="250" viewBox="0 0 250 250" fill="none" xmlns="http://www.w3.org/2000/svg">
<g id="Frame" clip-path="url(#clip0_1496_7969)">
<g id="Group">
<path id="Vector" d="M39.2923 67.6409C52.881 64.577 65.5966 57.9779 76.1838 48.3149C82.678 42.364 89.336 35.0578 94.575 26.4554C105.326 8.77924 145.983 -12.0786 191.06 24.0397C236.138 60.158 232.154 88.5577 226.588 115.131C221.021 141.704 226.697 169.456 219.111 191.551C212.89 209.581 186.64 262.491 145.055 246.877C103.47 231.263 109.255 204.278 78.0939 181.888C46.9326 159.498 31.5429 181.299 7.36697 146.064C-3.00195 130.922 -4.58457 77.5985 39.2923 67.6409Z" stroke="#D1DCED" stroke-width="0.7849" stroke-miterlimit="10" stroke-linecap="round" stroke-dasharray="4.19 4.19"/>
<path id="Vector_2" d="M233.355 155.904C229.48 162.15 224.351 168.336 218.347 174.935C201.703 192.965 203.667 231.97 149.803 239.866C115.204 244.933 99.0504 226.727 91.9013 213.057C84.3156 198.562 72.9098 185.718 58.0113 181.299C49.7162 178.824 27.3957 188.664 10.1506 165.979C-12.279 136.46 2.34661 77.4218 56.7016 61.6311C105.981 47.3134 129.12 -46.2525 191.661 28.9301C218.238 60.924 279.415 81.723 233.355 155.904Z" fill="#E9EFFF"/>
</g>
<g id="Group_2">
<path id="Vector_3" d="M210.761 139.701C210.925 139.053 211.034 138.346 211.034 137.639C211.034 136.99 210.98 136.342 210.816 135.753L209.452 135.93C209.288 135.164 209.015 134.516 208.688 133.868L209.779 132.925C209.452 132.336 209.07 131.805 208.633 131.275C208.469 131.098 208.251 130.922 208.087 130.745C208.033 130.686 207.978 130.627 207.924 130.627C207.705 130.45 207.487 130.273 207.214 130.097L206.341 131.275C206.286 131.216 206.232 131.157 206.123 131.157C206.068 131.098 205.959 131.039 205.904 131.039C205.468 130.804 204.977 130.568 204.431 130.45L204.595 128.977C203.994 128.8 203.339 128.683 202.685 128.683C202.084 128.683 201.484 128.742 200.938 128.918L201.102 130.391C200.392 130.568 199.792 130.863 199.192 131.216L198.319 130.097C197.773 130.45 197.282 130.863 196.791 131.334C196.354 131.805 195.972 132.336 195.699 132.866L196.736 133.75C196.354 134.398 196.081 135.046 195.917 135.812L194.553 135.635C194.389 136.283 194.28 136.99 194.28 137.697C194.28 138.346 194.335 138.994 194.499 139.583L195.863 139.406C196.027 140.172 196.299 140.82 196.627 141.468L195.59 142.352C195.917 142.941 196.299 143.472 196.736 144.002C197.173 144.473 197.664 144.886 198.155 145.18L198.974 144.061C199.574 144.473 200.229 144.768 200.884 144.945L200.72 146.359C201.32 146.536 201.975 146.653 202.63 146.653C203.23 146.653 203.831 146.594 204.376 146.418L204.213 145.004C204.922 144.827 205.577 144.532 206.123 144.179L206.941 145.298C207.487 144.945 207.978 144.532 208.469 144.061C208.906 143.59 209.288 143.059 209.561 142.529L208.524 141.645C208.906 140.997 209.179 140.29 209.342 139.583L210.761 139.701ZM206.941 137.815C206.887 140.231 205.031 142.234 202.794 142.293C200.338 142.352 198.264 140.172 198.373 137.521C198.428 135.105 200.283 133.102 202.521 133.043C205.031 132.925 207.05 135.105 206.941 137.815Z" fill="#DCE7F9"/>
<path id="Vector_4" d="M157.607 218.065C157.88 217.063 157.989 215.944 157.989 214.883C157.989 213.882 157.88 212.88 157.662 211.878L155.534 212.114C155.261 210.936 154.879 209.875 154.333 208.873L156.025 207.459C155.534 206.517 154.933 205.692 154.224 204.926C153.951 204.631 153.623 204.337 153.351 204.042C153.296 203.983 153.187 203.924 153.132 203.806C152.805 203.512 152.423 203.276 152.041 203.04L150.731 204.867C150.622 204.808 150.513 204.749 150.404 204.69C150.295 204.631 150.185 204.513 150.022 204.454C149.312 204.042 148.548 203.747 147.73 203.512L147.948 201.214C147.02 200.919 145.983 200.801 145.001 200.801C144.073 200.801 143.145 200.919 142.218 201.155L142.436 203.453C141.344 203.747 140.362 204.16 139.434 204.749L138.125 202.981C137.252 203.512 136.487 204.16 135.778 204.926C135.123 205.633 134.523 206.458 134.086 207.283L135.723 208.697C135.178 209.698 134.741 210.759 134.414 211.937L132.285 211.702C132.012 212.703 131.903 213.823 131.903 214.883C131.903 215.885 132.012 216.887 132.231 217.888L134.305 217.653C134.577 218.831 134.959 219.892 135.505 220.893L133.868 222.307C134.359 223.25 134.959 224.075 135.669 224.841C136.324 225.548 137.088 226.196 137.852 226.667L139.162 224.9C140.089 225.489 141.072 226.019 142.163 226.314L141.945 228.553C142.873 228.847 143.909 228.965 144.892 228.965C145.819 228.965 146.747 228.847 147.675 228.612L147.457 226.373C148.548 226.078 149.53 225.666 150.513 225.077L151.823 226.844C152.696 226.314 153.46 225.666 154.169 224.9C154.824 224.193 155.424 223.368 155.861 222.543L154.224 221.129C154.77 220.127 155.206 219.067 155.479 217.888L157.607 218.065ZM151.659 215.06C151.55 218.831 148.657 221.954 145.165 222.072C141.29 222.189 138.125 218.772 138.234 214.589C138.343 210.818 141.235 207.695 144.728 207.577C148.603 207.459 151.768 210.877 151.659 215.06Z" fill="#DCE7F9"/>
<path id="Vector_5" d="M168.741 227.021C168.85 226.491 168.904 225.902 168.85 225.312C168.85 224.782 168.741 224.252 168.577 223.721L167.485 223.898C167.322 223.309 167.049 222.72 166.776 222.19L167.649 221.365C167.376 220.893 167.049 220.422 166.612 220.068C166.448 219.892 166.285 219.774 166.121 219.656C166.066 219.597 166.012 219.597 166.012 219.538C165.794 219.42 165.63 219.244 165.412 219.126L164.757 220.127C164.702 220.068 164.648 220.068 164.593 220.009C164.538 219.951 164.484 219.951 164.375 219.892C163.993 219.715 163.556 219.538 163.12 219.42L163.174 218.183C162.683 218.065 162.137 218.006 161.591 218.065C161.1 218.065 160.609 218.183 160.118 218.36L160.282 219.597C159.736 219.774 159.19 220.009 158.699 220.363L157.935 219.42C157.498 219.715 157.062 220.068 156.734 220.54C156.407 220.952 156.08 221.365 155.861 221.836L156.789 222.543C156.516 223.073 156.298 223.663 156.189 224.311L155.043 224.252C154.934 224.782 154.879 225.371 154.934 225.96C154.934 226.491 155.043 227.021 155.206 227.551L156.298 227.375C156.462 227.964 156.68 228.553 157.007 229.083L156.134 229.908C156.407 230.38 156.734 230.851 157.171 231.204C157.553 231.558 157.935 231.911 158.372 232.147L159.027 231.145C159.518 231.44 160.063 231.676 160.664 231.794L160.609 233.031C161.1 233.149 161.646 233.208 162.192 233.149C162.683 233.149 163.174 233.031 163.665 232.854L163.502 231.676C164.047 231.499 164.593 231.263 165.084 230.91L165.848 231.853C166.285 231.558 166.721 231.204 167.049 230.733C167.376 230.321 167.704 229.908 167.922 229.437L166.994 228.73C167.267 228.199 167.485 227.61 167.595 226.962L168.741 227.021ZM165.521 225.607C165.521 227.669 164.102 229.378 162.192 229.555C160.118 229.731 158.317 227.964 158.317 225.725C158.317 223.663 159.736 221.954 161.646 221.777C163.72 221.6 165.466 223.368 165.521 225.607Z" fill="#DCE7F9"/>
</g>
<g id="Group_3">
<g id="Group_4">
<g id="Group_5">
<g id="Group_6">
<g id="Group_7">
<path id="Vector_6" d="M107.072 188.269C107.072 188.269 105.053 209.316 105.926 210.577C107.727 213.043 121.752 194.682 121.752 194.682" fill="#7EABF2"/>
</g>
<g id="Group_8">
<path id="Vector_7" d="M176.38 169.908C176.38 169.908 188.495 187.228 188.332 188.763C187.95 191.832 166.721 182.789 166.721 182.789" fill="#7EABF2"/>
</g>
</g>
<g id="Group_9">
<g id="Group_10">
<g id="Group_11">
<path id="Vector_8" d="M107.782 91.6397C107.782 91.6397 102.161 98.0524 94.2477 104.136C86.8804 109.782 78.6944 113.947 78.6944 113.947C72.5822 105.89 74.1102 94.3254 82.1325 88.1867C90.2093 82.048 101.67 83.5827 107.782 91.6397Z" fill="#7EABF2"/>
</g>
<g id="Group_12">
<path id="Vector_9" d="M84.2062 87.3097C84.9156 88.2962 84.7519 89.6665 83.8242 90.379C82.8418 91.0915 81.4775 90.9271 80.7681 89.9953C80.0586 89.0088 80.2223 87.6385 81.1501 86.926C82.1324 86.1586 83.4967 86.3231 84.2062 87.3097Z" fill="#7EABF2"/>
</g>
<g id="Group_13">
<path id="Vector_10" d="M83.1461 87.7406L81.498 89.0049L96.471 108.693L98.119 107.429L83.1461 87.7406Z" fill="#7EABF2"/>
</g>
</g>
<g id="Group_14">
<g id="Group_15">
<path id="Vector_11" d="M128.138 86.2135C128.138 86.2135 136.16 89.0088 146.038 90.3791C155.206 91.6397 164.374 91.2012 164.374 91.2012C165.739 81.171 158.753 71.9082 148.712 70.5379C138.67 69.1677 129.502 76.1833 128.138 86.2135Z" fill="#7EABF2"/>
</g>
<g id="Group_16">
<path id="Vector_12" d="M146.529 70.7573C146.365 71.9631 147.184 73.0593 148.384 73.2237C149.585 73.3881 150.676 72.566 150.84 71.3602C151.004 70.1543 150.185 69.0581 148.984 68.8937C147.784 68.7293 146.692 69.5514 146.529 70.7573Z" fill="#7EABF2"/>
</g>
<g id="Group_17">
<path id="Vector_13" d="M147.681 70.6197L144.349 95.1658L146.403 95.4472L149.736 70.901L147.681 70.6197Z" fill="#7EABF2"/>
</g>
</g>
</g>
<path id="Vector_14" d="M119.024 93.6679L117.605 88.2417" stroke="#6A93E5" stroke-width="3.2919" stroke-miterlimit="10"/>
<path id="Vector_15" d="M122.625 87.803L113.021 90.3791C112.311 90.5983 111.547 90.1598 111.383 89.3925C111.165 88.68 111.602 87.9126 112.366 87.7482L121.971 85.1722C122.68 84.9529 123.444 85.3914 123.608 86.1587C123.771 86.8713 123.335 87.5838 122.625 87.803Z" fill="#6A93E5"/>
<path id="Vector_16" d="M191.606 144.97C191.388 154.068 189.205 162.673 185.385 170.292" stroke="#6A93E5" stroke-width="1.0757" stroke-miterlimit="10" stroke-linecap="round"/>
<path id="Vector_17" d="M83.2242 176.924C76.6208 167.058 72.8553 155.164 73.1281 142.394" stroke="#6A93E5" stroke-width="1.0757" stroke-miterlimit="10" stroke-linecap="round"/>
<path id="Vector_18" d="M86.0074 175.115C79.7314 165.797 76.1842 154.561 76.4571 142.448" stroke="#6A93E5" stroke-width="1.0156" stroke-miterlimit="10" stroke-linecap="round"/>
<path id="Vector_19" d="M188.332 144.915C188.168 153.356 186.149 161.248 182.656 168.374" stroke="#6A93E5" stroke-width="1.0156" stroke-miterlimit="10" stroke-linecap="round"/>
<path id="Vector_20" d="M169.884 181.329C190.599 160.524 190.599 126.793 169.884 105.988C149.169 85.1826 115.583 85.1826 94.8676 105.988C74.1524 126.793 74.1524 160.524 94.8676 181.329C115.583 202.134 149.169 202.134 169.884 181.329Z" fill="#6A93E5"/>
<path id="Vector_21" d="M175.149 167.35C188.175 143.626 179.585 113.787 155.963 100.704C132.341 87.6216 102.631 96.2485 89.6049 119.973C76.5785 143.698 85.1682 173.536 108.79 186.619C132.413 199.702 162.122 191.075 175.149 167.35Z" fill="#A6C6F4"/>
<path id="Vector_22" d="M165.177 176.601C183.292 158.407 183.292 128.91 165.177 110.716C147.061 92.5221 117.691 92.5221 99.5758 110.716C81.4606 128.91 81.4606 158.407 99.5758 176.601C117.691 194.795 147.061 194.795 165.177 176.601Z" fill="white"/>
</g>
<g id="Group_18">
<g id="Group_19">
<path id="Vector_23" d="M122.408 106.713C121.644 106.877 120.825 106.384 120.662 105.616L119.898 102.328C119.734 101.56 120.225 100.738 120.989 100.574C121.753 100.409 122.572 100.903 122.736 101.67L123.5 104.959C123.718 105.781 123.227 106.548 122.408 106.713Z" fill="#4A5C89"/>
<path id="Vector_24" d="M168.085 135.104C167.921 134.337 168.413 133.515 169.177 133.35L172.451 132.583C173.215 132.418 174.034 132.912 174.197 133.679C174.361 134.446 173.87 135.269 173.106 135.433L169.832 136.2C169.068 136.365 168.249 135.871 168.085 135.104Z" fill="#4A5C89"/>
<path id="Vector_25" d="M139.871 180.925C140.635 180.761 141.453 181.254 141.617 182.021L142.381 185.31C142.545 186.077 142.054 186.899 141.29 187.064C140.526 187.228 139.707 186.735 139.543 185.967L138.779 182.679C138.561 181.912 139.052 181.144 139.871 180.925Z" fill="#4A5C89"/>
<path id="Vector_26" d="M94.1935 152.643C94.3572 153.41 93.8661 154.233 93.102 154.397L89.8276 155.164C89.0636 155.329 88.245 154.836 88.0813 154.068C87.9176 153.301 88.4087 152.479 89.1728 152.314L92.4472 151.547C93.2112 151.328 93.9752 151.821 94.1935 152.643Z" fill="#4A5C89"/>
</g>
<g id="Group_20">
<path id="Vector_27" d="M142.599 105.671C142.054 105.507 141.726 104.904 141.89 104.356L142.599 102.054C142.763 101.506 143.363 101.177 143.909 101.341C144.455 101.506 144.782 102.109 144.619 102.657L143.909 104.959C143.745 105.507 143.145 105.836 142.599 105.671Z" fill="#B6BCCE"/>
<path id="Vector_28" d="M160.063 116.524C159.681 116.085 159.681 115.427 160.118 115.044L161.864 113.399C162.301 113.016 162.956 113.016 163.338 113.454C163.72 113.893 163.72 114.55 163.283 114.934L161.537 116.578C161.1 116.962 160.445 116.962 160.063 116.524Z" fill="#B6BCCE"/>
<path id="Vector_29" d="M169.177 155.329C169.34 154.781 169.941 154.452 170.486 154.616L172.779 155.329C173.324 155.493 173.652 156.096 173.488 156.644C173.324 157.192 172.724 157.521 172.178 157.357L169.886 156.644C169.286 156.48 169.013 155.877 169.177 155.329Z" fill="#B6BCCE"/>
<path id="Vector_30" d="M158.372 172.868C158.808 172.484 159.463 172.484 159.845 172.923L161.482 174.677C161.864 175.115 161.864 175.773 161.428 176.157C160.991 176.54 160.336 176.54 159.954 176.102L158.317 174.348C157.88 173.964 157.935 173.307 158.372 172.868Z" fill="#B6BCCE"/>
<path id="Vector_31" d="M119.679 182.021C120.224 182.186 120.552 182.789 120.388 183.337L119.679 185.639C119.515 186.187 118.915 186.516 118.369 186.351C117.823 186.187 117.496 185.584 117.659 185.036L118.369 182.734C118.587 182.186 119.133 181.857 119.679 182.021Z" fill="#B6BCCE"/>
<path id="Vector_32" d="M102.216 171.169C102.598 171.607 102.598 172.265 102.161 172.649L100.415 174.293C99.9781 174.677 99.3232 174.677 98.9412 174.238C98.5592 173.8 98.5591 173.142 98.9957 172.758L100.742 171.114C101.179 170.73 101.834 170.785 102.216 171.169Z" fill="#B6BCCE"/>
<path id="Vector_33" d="M93.1016 132.364C92.9379 132.912 92.3376 133.241 91.7919 133.076L89.4998 132.364C88.9541 132.199 88.6266 131.596 88.7903 131.048C88.9541 130.5 89.5544 130.171 90.1001 130.336L92.3922 131.048C92.9379 131.267 93.2653 131.816 93.1016 132.364Z" fill="#B6BCCE"/>
<path id="Vector_34" d="M103.853 114.824C103.416 115.208 102.761 115.208 102.379 114.77L100.742 113.016C100.36 112.577 100.36 111.92 100.797 111.536C101.233 111.152 101.888 111.152 102.27 111.591L103.907 113.345C104.344 113.783 104.289 114.441 103.853 114.824Z" fill="#B6BCCE"/>
</g>
</g>
<g id="Group_21">
<path id="Vector_35" d="M130.975 144.422C130.211 144.203 129.72 143.38 129.938 142.558L141.726 101.396C141.944 100.629 142.763 100.136 143.581 100.355C144.345 100.574 144.836 101.396 144.618 102.218L132.83 143.38C132.557 144.203 131.739 144.641 130.975 144.422Z" fill="#3F00C3"/>
<path id="Vector_36" d="M132.285 143.216C132.612 143.983 132.285 144.86 131.521 145.189L99.3772 159.275C98.6132 159.604 97.74 159.275 97.4126 158.508C97.0851 157.74 97.4126 156.863 98.1766 156.534L130.32 142.448C131.084 142.119 131.957 142.448 132.285 143.216Z" fill="#3F00C3"/>
<path id="Vector_37" d="M134.141 144.696C133.65 146.34 131.903 147.327 130.266 146.833C128.629 146.34 127.646 144.586 128.138 142.942C128.629 141.297 130.375 140.311 132.012 140.804C133.65 141.297 134.632 143.051 134.141 144.696Z" fill="#3F00C3"/>
</g>
</g>
</g>
<g id="Group_22">
<g id="Group_23">
<path id="Vector_38" d="M218.348 132.925C218.348 132.925 221.076 140.584 216.437 147.832C212.017 154.549 206.451 153.429 200.557 161.973C205.468 167.511 210.598 174.346 215.783 180.533C215.783 180.65 221.404 176.762 228.225 169.161C234.992 161.383 237.721 151.662 236.575 145.828C230.626 141.409 224.514 136.578 218.348 132.925Z" fill="#E8EFFC"/>
<g id="Group_24" opacity="0.5">
<path id="Vector_39" d="M220.858 138.287C220.749 138.169 220.694 137.992 220.749 137.815C220.804 137.638 221.022 137.579 221.131 137.697C225.606 140.643 230.026 144.002 234.338 147.125C234.501 147.242 234.556 147.419 234.447 147.596C234.392 147.773 234.229 147.773 234.065 147.714C229.808 144.591 225.333 141.233 220.858 138.287Z" fill="#A3BFE2"/>
<path id="Vector_40" d="M220.148 141.881C220.039 141.763 219.984 141.586 220.039 141.409C220.094 141.233 220.312 141.174 220.421 141.292C224.896 144.591 229.426 148.303 233.791 151.544C233.955 151.662 233.955 151.838 233.901 152.015C233.846 152.192 233.628 152.192 233.519 152.133C229.153 148.833 224.678 145.18 220.148 141.881C220.203 141.881 220.203 141.881 220.148 141.881Z" fill="#A3BFE2"/>
<path id="Vector_41" d="M227.734 152.84C224.842 150.365 221.895 147.773 218.948 145.357C218.839 145.239 218.784 145.004 218.893 144.886C219.003 144.709 219.166 144.65 219.275 144.768C222.222 147.243 225.169 149.835 228.062 152.31C228.171 152.428 228.225 152.663 228.116 152.781C228.062 152.899 227.898 152.958 227.734 152.84Z" fill="#A3BFE2"/>
<path id="Vector_42" d="M230.026 161.56C225.715 157.612 221.404 153.076 217.038 148.774C216.929 148.657 216.874 148.421 216.983 148.244C217.092 148.067 217.256 148.067 217.365 148.185C221.677 152.486 226.042 157.082 230.299 160.971C230.408 161.089 230.463 161.266 230.354 161.442C230.299 161.619 230.135 161.678 230.026 161.56Z" fill="#A3BFE2"/>
<path id="Vector_43" d="M227.406 166.392C223.095 162.031 218.784 156.964 214.472 152.31C214.363 152.192 214.363 151.956 214.472 151.779C214.582 151.602 214.745 151.602 214.855 151.72C219.166 156.434 223.477 161.442 227.734 165.802C227.843 165.92 227.843 166.156 227.734 166.274C227.679 166.45 227.515 166.509 227.406 166.392Z" fill="#A3BFE2"/>
<path id="Vector_44" d="M218.02 163.151C218.02 163.092 218.02 163.092 218.02 163.151C215.783 160.558 213.654 158.025 211.472 155.55C211.362 155.432 211.362 155.197 211.472 155.079C211.581 154.961 211.744 154.902 211.854 155.079C214.036 157.554 216.219 160.087 218.348 162.68C218.457 162.797 218.457 163.033 218.348 163.21C218.348 163.21 218.184 163.21 218.02 163.151Z" fill="#A3BFE2"/>
<path id="Vector_45" d="M220.039 173.639C215.892 168.513 211.744 163.033 207.706 158.084C207.597 157.966 207.597 157.73 207.706 157.613C207.815 157.495 207.979 157.495 208.088 157.613C212.126 162.562 216.274 168.041 220.367 173.109C220.476 173.226 220.476 173.462 220.367 173.639C220.312 173.698 220.149 173.757 220.039 173.639Z" fill="#A3BFE2"/>
<path id="Vector_46" d="M216.874 176.29C216.819 176.29 216.819 176.29 216.874 176.29C212.617 171.341 208.415 166.038 204.267 161.383C204.158 161.266 204.158 161.03 204.267 160.912C204.377 160.794 204.54 160.794 204.649 160.912C208.742 165.567 212.999 170.811 217.201 175.76C217.31 175.878 217.31 176.114 217.201 176.29C217.147 176.349 216.983 176.408 216.874 176.29Z" fill="#A3BFE2"/>
</g>
</g>
<g id="Group_25">
<path id="Vector_47" d="M128.901 39.3001C129.01 39.2412 129.938 43.7192 125.19 47.4901C120.934 50.7896 116.459 50.495 111.602 55.2676C115.476 56.6817 119.024 59.3921 121.97 63.2808C122.025 63.2808 125.572 62.9273 130.975 61.2775C136.214 59.7456 141.617 53.3232 142.654 48.4328C138.779 44.1316 134.086 40.9499 128.901 39.3001Z" fill="#E8EFFC"/>
<g id="Group_26">
<path id="Vector_48" d="M130.32 42.2461C130.211 42.1872 130.211 42.0694 130.32 42.0105C130.429 41.8926 130.593 41.8926 130.702 41.9515C134.249 43.6013 137.524 46.0171 140.307 49.0809C140.416 49.1988 140.362 49.3166 140.307 49.4345C140.198 49.5523 140.034 49.4934 139.98 49.4345C137.142 46.3117 133.867 43.8959 130.32 42.2461Z" fill="#A3BFE2"/>
<path id="Vector_49" d="M129.12 44.2494C129.011 44.1905 129.011 44.0726 129.12 43.9548C129.229 43.837 129.393 43.837 129.502 43.8959C132.94 45.8403 136.051 48.5506 138.616 51.9091C138.67 52.0269 138.67 52.1448 138.561 52.2626C138.452 52.3215 138.288 52.3215 138.234 52.2037C135.669 48.9041 132.558 46.1938 129.12 44.2494C129.175 44.2494 129.175 44.2494 129.12 44.2494Z" fill="#A3BFE2"/>
<path id="Vector_50" d="M133.54 51.4378C131.739 49.3756 129.775 47.6079 127.592 46.1938C127.482 46.1349 127.482 46.0171 127.592 45.8992C127.701 45.8403 127.864 45.7814 127.974 45.8403C130.157 47.2544 132.121 49.022 133.922 51.1432C133.977 51.261 133.977 51.3789 133.868 51.4378C133.758 51.5556 133.595 51.4967 133.54 51.4378Z" fill="#A3BFE2"/>
<path id="Vector_51" d="M133.486 57.3886C131.358 53.4999 128.629 50.3182 125.573 47.9614C125.464 47.9024 125.518 47.7846 125.573 47.6667C125.682 47.6078 125.846 47.6078 125.9 47.6667C128.956 50.0825 131.63 53.2642 133.759 57.153C133.813 57.2708 133.813 57.3886 133.704 57.4476C133.65 57.5065 133.54 57.4476 133.486 57.3886Z" fill="#A3BFE2"/>
<path id="Vector_52" d="M130.866 59.3921C130.866 59.3331 130.866 59.3331 130.866 59.3921C128.792 55.3855 126.118 52.1448 123.116 49.7291C123.007 49.6702 123.062 49.5523 123.171 49.4934C123.28 49.4345 123.444 49.4345 123.498 49.4934C126.5 51.9092 129.119 55.2087 131.193 59.2153C131.248 59.3331 131.193 59.451 131.138 59.5099C131.029 59.5099 130.92 59.451 130.866 59.3921Z" fill="#A3BFE2"/>
<path id="Vector_53" d="M124.809 55.3855C123.444 53.7947 122.026 52.4395 120.443 51.2611C120.334 51.2022 120.388 51.0843 120.443 51.0254C120.552 50.9665 120.661 50.9665 120.77 51.0254C122.298 52.2038 123.772 53.559 125.082 55.1498C125.136 55.2088 125.136 55.3266 125.027 55.3855C125.027 55.4444 124.918 55.4444 124.809 55.3855Z" fill="#A3BFE2"/>
<path id="Vector_54" d="M125.19 60.9828C122.953 57.3886 120.279 54.6194 117.332 52.6161C117.277 52.5571 117.277 52.4393 117.332 52.3804C117.441 52.3215 117.55 52.3215 117.659 52.3804C120.606 54.3837 123.28 57.2119 125.463 60.806C125.518 60.9239 125.518 61.0417 125.409 61.0417C125.354 61.1006 125.245 61.1006 125.19 60.9828Z" fill="#A3BFE2"/>
<path id="Vector_55" d="M122.898 61.5133C120.442 58.3315 117.605 55.9158 114.494 54.3839C114.385 54.3249 114.385 54.266 114.494 54.2071C114.603 54.1482 114.712 54.0893 114.821 54.1482C117.932 55.6801 120.77 58.1548 123.171 61.3365C123.226 61.4543 123.226 61.5133 123.171 61.5722C123.062 61.6311 122.953 61.5722 122.898 61.5133Z" fill="#A3BFE2"/>
</g>
</g>
<g id="Group_27">
<g id="Group_28">
<path id="Vector_56" d="M169.363 30.8793L167.507 31.877L177.915 54.4521L179.771 53.4544L169.363 30.8793Z" fill="#D1DCED"/>
</g>
<g id="Group_29">
<path id="Vector_57" d="M177.908 54.4428L179.327 55.798C179.545 56.0337 179.927 55.798 179.873 55.5034L179.764 53.4412L177.908 54.4428Z" fill="#D1DCED"/>
</g>
<g id="Group_30">
<path id="Vector_58" d="M169.668 30.7567C169.995 31.4637 169.722 32.3475 169.068 32.701C168.413 33.0546 167.594 32.76 167.267 32.0529C166.939 31.3459 167.212 30.4621 167.867 30.1085C168.522 29.755 169.34 30.0496 169.668 30.7567Z" fill="#D1DCED"/>
</g>
<g id="Group_31">
<path id="Vector_59" d="M173.543 39.1234C173.325 39.1234 173.052 39.0055 172.833 38.7109C172.506 38.2985 172.397 37.3558 172.233 36.2363C172.069 34.8811 171.906 33.3492 171.305 32.4064C170.814 31.6405 170.323 31.1691 169.832 31.1102C169.45 31.0513 169.286 31.228 169.232 31.228C169.122 31.287 169.013 31.287 168.959 31.1691C168.904 31.0513 168.904 30.9334 169.013 30.8745C169.013 30.8745 169.395 30.5799 169.886 30.6977C170.487 30.8156 171.087 31.287 171.633 32.1708C172.288 33.2313 172.451 34.7633 172.615 36.1774C172.724 37.179 172.833 38.1217 173.106 38.4163C173.325 38.7109 173.543 38.7699 173.761 38.5931C173.979 38.4753 174.034 38.1807 173.979 38.0039C173.925 37.8861 173.979 37.7682 174.089 37.7093C174.198 37.6504 174.307 37.7093 174.361 37.8271C174.525 38.1807 174.361 38.7109 173.979 39.0055C173.87 39.0645 173.707 39.1234 173.543 39.1234Z" fill="#D1DCED"/>
</g>
<g id="Group_32">
<path id="Vector_60" d="M175.344 43.8369C175.344 43.8369 178.182 47.6078 179.655 53.2053L175.344 43.8369Z" fill="#D1DCED"/>
</g>
<g id="Group_33">
<path id="Vector_61" d="M173.488 44.8386C173.488 44.8386 174.58 49.5523 177.8 54.207L173.488 44.8386Z" fill="#D1DCED"/>
</g>
</g>
<g id="Group_34">
<g id="Group_35">
<path id="Vector_62" d="M196.954 210.641C196.954 210.641 196.9 200.919 203.721 194.379C203.721 194.379 206.177 202.039 197.773 212.055" fill="#67F4E3"/>
<path id="Vector_63" d="M198.483 213.528C198.483 213.528 206.396 218.242 214.909 214.825C214.909 214.825 209.834 208.874 197.664 212.055" fill="#67F4E3"/>
<path id="Vector_64" d="M197.937 210.936C197.937 210.936 201.102 201.803 209.67 198.386C209.67 198.386 209.397 206.458 198.209 212.527" fill="#67F4E3"/>
<path id="Vector_65" d="M198.81 212.645C198.81 212.645 207.76 213.705 214.472 207.047C214.472 207.047 207.705 203.63 197.555 211.643" fill="#67F4E3"/>
</g>
<g id="Group_36">
<path id="Vector_66" d="M203.563 218.795L194.868 203.058L182.683 210.906L191.378 226.643L203.563 218.795Z" fill="#7EABF2"/>
<path id="Vector_67" d="M203.573 218.782L201.867 215.696L189.682 223.544L191.387 226.631L203.573 218.782Z" fill="#6A93E5"/>
</g>
</g>
<g id="Group_37">
<path id="Vector_68" d="M208.142 58.626C208.088 57.4476 207.706 56.4459 206.942 55.7389C206.232 55.0318 205.25 54.7372 204.431 54.6194L205.359 52.6161L189.205 46.4294L185.658 64.1645L186.641 65.8143L195.918 69.4085L197.664 68.8193L198.974 66.1089C199.738 65.9911 200.775 65.7554 201.648 65.4608C204.868 64.3413 208.252 62.8683 208.142 58.626ZM201.321 64.1645C200.83 64.3413 200.284 64.4591 199.738 64.577L203.886 55.8567C204.595 55.9157 205.523 56.1513 206.178 56.7405C206.669 57.2119 206.942 57.86 206.942 58.6849C206.996 61.6899 204.923 62.9861 201.321 64.1645Z" fill="#E8EFFC"/>
<path id="Vector_69" opacity="0.5" d="M205.414 52.6161L197.774 68.7603L196.027 69.3495L186.75 65.7554C186.75 65.7554 197.01 65.8143 202.194 51.3198L205.414 52.6161Z" fill="#D7E2F2"/>
</g>
<g id="Group_38">
<path id="Vector_70" d="M171.305 212.114C171.305 212.644 170.923 213.057 170.432 213.057C169.941 213.057 169.559 212.644 169.559 212.114C169.559 211.584 169.941 211.171 170.432 211.171C170.923 211.112 171.305 211.525 171.305 212.114Z" fill="#7EABF2"/>
<path id="Vector_71" d="M233.955 126.974C233.955 127.504 233.573 127.917 233.082 127.917C232.591 127.917 232.209 127.504 232.209 126.974C232.209 126.444 232.591 126.031 233.082 126.031C233.519 126.031 233.955 126.444 233.955 126.974Z" fill="#7EABF2"/>
<path id="Vector_72" d="M212.289 70.4691C212.289 70.9994 211.907 71.4118 211.416 71.4118C210.925 71.4118 210.543 70.9994 210.543 70.4691C210.543 69.9388 210.925 69.5264 211.416 69.5264C211.907 69.5264 212.289 69.9388 212.289 70.4691Z" fill="#7EABF2"/>
<path id="Vector_73" d="M147.948 11.4896C147.948 12.0199 147.566 12.4323 147.074 12.4323C146.583 12.4323 146.201 12.0199 146.201 11.4896C146.201 10.9593 146.583 10.5469 147.074 10.5469C147.566 10.4879 147.948 10.9004 147.948 11.4896Z" fill="#7EABF2"/>
<path id="Vector_74" d="M59.0483 123.851C59.9525 123.851 60.6855 123.06 60.6855 122.084C60.6855 121.107 59.9525 120.316 59.0483 120.316C58.1441 120.316 57.4111 121.107 57.4111 122.084C57.4111 123.06 58.1441 123.851 59.0483 123.851Z" fill="#67F4E3"/>
<path id="Vector_75" d="M196.955 186.366C197.859 186.366 198.592 185.574 198.592 184.598C198.592 183.622 197.859 182.831 196.955 182.831C196.05 182.831 195.317 183.622 195.317 184.598C195.317 185.574 196.05 186.366 196.955 186.366Z" fill="#7EABF2"/>
<path id="Vector_76" d="M156.898 51.3199C157.802 51.3199 158.535 50.5285 158.535 49.5523C158.535 48.5761 157.802 47.7847 156.898 47.7847C155.994 47.7847 155.261 48.5761 155.261 49.5523C155.261 50.5285 155.994 51.3199 156.898 51.3199Z" fill="#67F4E3"/>
<path id="Vector_77" d="M127.101 233.031C128.005 233.031 128.738 232.239 128.738 231.263C128.738 230.287 128.005 229.496 127.101 229.496C126.197 229.496 125.464 230.287 125.464 231.263C125.464 232.239 126.197 233.031 127.101 233.031Z" fill="#7EABF2"/>
<path id="Vector_78" d="M41.2571 85.6117C41.2571 86.142 40.8751 86.5544 40.3839 86.5544C39.8928 86.5544 39.5107 86.142 39.5107 85.6117C39.5107 85.0814 39.8928 84.6689 40.3839 84.6689C40.8751 84.6689 41.2571 85.0814 41.2571 85.6117Z" fill="#7EABF2"/>
<path id="Vector_79" d="M103.416 69.6441C103.416 70.1744 103.034 70.5869 102.543 70.5869C102.052 70.5869 101.67 70.1744 101.67 69.6441C101.67 69.1139 102.052 68.7014 102.543 68.7014C102.98 68.7014 103.416 69.1139 103.416 69.6441Z" fill="#7EABF2"/>
<path id="Vector_80" d="M97.6858 206.163C97.6858 206.693 97.3038 207.106 96.8126 207.106C96.3215 207.106 95.9395 206.693 95.9395 206.163C95.9395 205.633 96.3215 205.22 96.8126 205.22C97.2492 205.22 97.6858 205.633 97.6858 206.163Z" fill="#7EABF2"/>
<path id="Vector_81" d="M211.907 32.819C211.907 33.3492 211.525 33.7617 211.034 33.7617C210.543 33.7617 210.161 33.3492 210.161 32.819C210.161 32.2887 210.543 31.8762 211.034 31.8762C211.525 31.8762 211.907 32.2887 211.907 32.819Z" fill="#67F4E3"/>
<path id="Vector_82" d="M100.197 15.555C100.197 16.0853 99.8145 16.4978 99.3234 16.4978C98.8322 16.4978 98.4502 16.0853 98.4502 15.555C98.4502 15.0247 98.8322 14.6123 99.3234 14.6123C99.8145 14.6123 100.197 15.0247 100.197 15.555Z" fill="#67F4E3"/>
<path id="Vector_83" d="M66.9612 44.8387C66.9612 45.369 66.5792 45.7815 66.088 45.7815C65.5969 45.7815 65.2148 45.369 65.2148 44.8387C65.2148 44.3084 65.5969 43.896 66.088 43.896C66.5792 43.896 66.9612 44.3084 66.9612 44.8387Z" fill="#67F4E3"/>
<path id="Vector_84" d="M223.696 205.456C223.696 205.986 223.314 206.399 222.822 206.399C222.331 206.399 221.949 205.986 221.949 205.456C221.949 204.926 222.331 204.513 222.822 204.513C223.314 204.513 223.696 204.926 223.696 205.456Z" fill="#7EABF2"/>
<path id="Vector_85" d="M45.6233 46.4294C45.6233 46.9597 45.2413 47.3721 44.7501 47.3721C44.259 47.3721 43.877 46.9597 43.877 46.4294C43.877 45.8991 44.259 45.4867 44.7501 45.4867C45.1867 45.4278 45.6233 45.8991 45.6233 46.4294Z" fill="#7EABF2"/>
</g>
<g id="Group_39">
<g id="Group_40">
<path id="Vector_86" d="M99.1043 50.9663L84.9698 64.4002C84.2058 65.4608 81.75 64.6948 78.0936 61.572C74.4372 58.3903 73.2366 55.9745 74.0006 54.914L82.9506 37.061L99.1043 50.9663Z" fill="#E8EFFC"/>
<path id="Vector_87" opacity="0.5" d="M99.1043 50.9663L84.9698 64.4002C84.2058 65.4607 81.75 64.6948 78.0936 61.572C74.4372 58.3903 73.2366 55.9745 74.0006 54.914C77.1113 61.1006 83.1689 62.3969 83.9875 61.8666C84.7515 61.3363 96.3211 48.5505 96.3211 48.5505L99.1043 50.9663Z" fill="#D7E2F2"/>
<path id="Vector_88" d="M99.1584 50.9663C98.2307 52.2625 93.8102 50.1414 89.3898 46.3116C84.9148 42.4817 82.077 38.2984 83.0047 37.061C83.9325 35.7648 88.3529 37.8859 92.7733 41.7157C97.1938 45.5456 100.086 49.67 99.1584 50.9663Z" fill="#BEC9E5"/>
<path id="Vector_89" d="M98.3406 50.2592C97.4674 51.3787 93.5381 49.5521 89.5543 46.0758C85.5704 42.5995 83.0055 38.8875 83.8241 37.768C84.6427 36.6485 88.6265 38.4751 92.6104 41.9514C96.5942 45.3688 99.1592 49.0808 98.3406 50.2592Z" fill="#E2E6FA"/>
</g>
<path id="Vector_90" d="M86.338 42.6646C86.338 42.6646 81.099 34.7693 82.1359 29.054C83.1182 23.3387 89.5032 22.2192 91.4133 26.9918C93.2688 31.8233 88.9029 37.8332 89.7215 41.4862C90.4856 45.1982 88.6846 46.9658 86.338 42.6646Z" fill="#67F4E3"/>
<path id="Vector_91" d="M86.7158 43.3655C86.7158 43.3655 88.6259 44.8975 91.7911 43.778C94.0286 43.012 98.3945 37.7092 102.16 35.9415C105.926 34.1739 109.909 38.593 108.818 43.4834C107.727 48.3149 100.577 51.7322 94.6289 49.6111C94.6289 49.67 91.0271 47.8435 86.7158 43.3655Z" fill="#67F4E3"/>
</g>
<g id="Group_41">
<path id="Vector_92" d="M61.8311 72.119L63.5229 70.5281L61.3945 69.6443L61.8311 72.119Z" fill="#DFE6FE"/>
<path id="Vector_93" d="M31.925 76.5379C32.0341 77.245 32.6344 77.6574 33.2893 77.5396L34.2171 77.3628C34.8719 77.245 35.2539 76.5968 35.1448 75.8898C35.0357 75.1827 34.4353 74.7703 33.7805 74.8881L32.8527 75.0649C32.2524 75.1827 31.8158 75.8309 31.925 76.5379Z" fill="#DFE6FE"/>
<path id="Vector_94" d="M33.969 74.844L34.374 77.3396L61.8426 72.1429L61.4376 69.6473L33.969 74.844Z" fill="#D1DCED"/>
</g>
</g>
</g>
<defs>
<clipPath id="clip0_1496_7969">
<rect width="250" height="250" fill="white"/>
</clipPath>
</defs>
</svg>
