<svg width="152" height="32" viewBox="0 0 152 32" fill="none" xmlns="http://www.w3.org/2000/svg">
<g clip-path="url(#clip0_23_28961)">
<path d="M25.7532 19.933C24.9738 19.9347 24.2104 19.7104 23.5553 19.2871C22.9002 18.8638 22.3812 18.2597 22.061 17.5475C21.7408 16.8353 21.633 16.0455 21.7507 15.2733C21.8683 14.5011 22.2063 13.7795 22.724 13.1955C23.2416 12.6115 23.9168 12.1901 24.6681 11.9819C25.4194 11.7738 26.2148 11.7879 26.9583 12.0226C27.7018 12.2572 28.3616 12.7024 28.8583 13.3044C29.355 13.9064 29.6674 14.6396 29.7576 15.4154H33.8147C33.693 13.3086 32.7565 11.3324 31.2043 9.90626C29.652 8.48015 27.6061 7.71654 25.5011 7.77757C23.3961 7.83859 21.3977 8.71945 19.9303 10.2331C18.4629 11.7468 17.6421 13.774 17.6421 15.8843C17.6421 17.9946 18.4629 20.0219 19.9303 21.5355C21.3977 23.0492 23.3961 23.93 25.5011 23.991C27.6061 24.0521 29.652 23.2885 31.2043 21.8623C32.7565 20.4362 33.693 18.46 33.8147 16.3532H29.7724C29.6576 17.3401 29.1845 18.2503 28.4434 18.9105C27.7023 19.5706 26.7448 19.9345 25.7532 19.933Z" fill="#2A2A86"/>
<path d="M12.4584 8.24585V16.1976C12.4584 18.2779 10.6143 19.9633 8.53831 19.9633C6.46235 19.9633 4.60136 18.2716 4.60136 16.1976V8.24585H0.672852V16.1976C0.672852 17.2326 0.876313 18.2574 1.27161 19.2136C1.66692 20.1698 2.24632 21.0385 2.97672 21.7703C3.70712 22.502 4.57422 23.0824 5.52849 23.4783C6.48276 23.8742 7.5055 24.0778 8.53831 24.0775C10.0368 24.0775 11.1896 23.6952 12.4584 22.5315V24.1007C12.4584 26.1811 10.8229 27.8665 8.53831 27.8665C6.2537 27.8665 4.43908 26.1769 4.43908 24.1007H0.672852C0.706632 26.1686 1.55006 28.1402 3.02124 29.5906C4.49243 31.0409 6.4735 31.8538 8.53725 31.8538C10.601 31.8538 12.5821 31.0409 14.0533 29.5906C15.5244 28.1402 16.3679 26.1686 16.4017 24.1007V8.26063L12.4584 8.24585Z" fill="#2A2A86"/>
<path d="M64.4252 8.24585V16.1976C64.4252 18.2779 62.5811 19.9633 60.5051 19.9633C58.4291 19.9633 56.5682 18.2737 56.5682 16.1976V8.24585H52.6396V16.1976C52.6396 17.2326 52.8431 18.2574 53.2384 19.2136C53.6337 20.1698 54.2131 21.0385 54.9435 21.7703C55.6739 22.502 56.541 23.0824 57.4953 23.4783C58.4495 23.8742 59.4723 24.0778 60.5051 24.0775C62.0036 24.0775 63.1564 23.6952 64.4252 22.5315V24.1007C64.4252 26.1811 62.7897 27.8665 60.5051 27.8665C58.2205 27.8665 56.4059 26.1769 56.4059 24.1007H52.6396C52.6734 26.1686 53.5169 28.1402 54.988 29.5906C56.4592 31.0409 58.4403 31.8538 60.504 31.8538C62.5678 31.8538 64.5489 31.0409 66.0201 29.5906C67.4912 28.1402 68.3347 26.1686 68.3684 24.1007V8.26063L64.4252 8.24585Z" fill="#FCAF17"/>
<path d="M47.0891 0.146118V9.16653C45.8873 8.27963 44.4361 7.79684 42.9435 7.78738C38.7284 7.78738 35.3015 11.1666 35.0654 15.4181H39.1035C39.2227 14.3873 39.7307 13.4411 40.5234 12.7735C41.3162 12.1058 42.3337 11.7672 43.3675 11.827C44.4013 11.8868 45.3731 12.3405 46.084 13.0951C46.7948 13.8498 47.1907 14.8482 47.1907 15.8859C47.1907 16.9236 46.7948 17.922 46.084 18.6767C45.3731 19.4313 44.4013 19.885 43.3675 19.9448C42.3337 20.0046 41.3162 19.666 40.5234 18.9983C39.7307 18.3307 39.2227 17.3845 39.1035 16.3537H35.0654C35.3036 20.6073 38.7389 23.9823 42.9435 23.9823C44.4479 23.9553 45.9067 23.4608 47.1186 22.5673L47.6919 23.7964H51.045V0.146118H47.0891Z" fill="#FCAF17"/>
<path d="M147.369 7H75.3687C73.1596 7 71.3687 8.79086 71.3687 11V21C71.3687 23.2091 73.1596 25 75.3687 25H147.369C149.578 25 151.369 23.2091 151.369 21V11C151.369 8.79086 149.578 7 147.369 7Z" fill="#1F2A37"/>
<path d="M146.21 13.2427V18.2196C146.21 19.3157 145.933 20.1304 145.377 20.6636C144.822 21.1969 144.015 21.4635 142.956 21.4635C142.393 21.4635 141.859 21.3931 141.356 21.2524C140.86 21.1117 140.441 20.908 140.1 20.6414L140.789 19.3972C141.041 19.6046 141.348 19.7675 141.711 19.886C142.074 20.0045 142.441 20.0637 142.811 20.0637C143.389 20.0637 143.811 19.9304 144.078 19.6638C144.344 19.3972 144.477 18.9899 144.477 18.4418V18.2418C144.255 18.464 143.992 18.6344 143.689 18.7529C143.385 18.8714 143.059 18.9306 142.711 18.9306C141.926 18.9306 141.304 18.7084 140.845 18.2641C140.386 17.8123 140.156 17.1383 140.156 16.2422V13.2427H141.889V15.9867C141.889 16.9569 142.293 17.442 143.1 17.442C143.515 17.442 143.848 17.3087 144.1 17.0421C144.352 16.768 144.477 16.3644 144.477 15.8312V13.2427H146.21Z" fill="white"/>
<path d="M136.192 17.9197C136.503 17.9197 136.777 17.8753 137.014 17.7864C137.258 17.6901 137.484 17.542 137.691 17.342L138.613 18.3418C138.051 18.9862 137.228 19.3083 136.147 19.3083C135.473 19.3083 134.877 19.1787 134.359 18.9195C133.84 18.6529 133.44 18.2863 133.159 17.8197C132.877 17.3531 132.737 16.8236 132.737 16.2311C132.737 15.646 132.874 15.1202 133.148 14.6536C133.429 14.1796 133.811 13.813 134.292 13.5538C134.781 13.2872 135.329 13.1539 135.936 13.1539C136.506 13.1539 137.025 13.2761 137.491 13.5205C137.958 13.7575 138.328 14.1056 138.602 14.5647C138.884 15.0165 139.024 15.5534 139.024 16.1756L134.603 17.031C134.729 17.3272 134.925 17.5494 135.192 17.6975C135.466 17.8456 135.799 17.9197 136.192 17.9197ZM135.936 14.4647C135.499 14.4647 135.144 14.6055 134.87 14.8869C134.596 15.1683 134.451 15.5571 134.436 16.0534L137.347 15.4868C137.265 15.1757 137.099 14.9276 136.847 14.7425C136.595 14.5573 136.292 14.4647 135.936 14.4647Z" fill="white"/>
<path d="M132.637 13.2427L130.115 19.2195H128.326L125.816 13.2427H127.604L129.259 17.3087L130.97 13.2427H132.637Z" fill="white"/>
<path d="M123.412 14.0315C123.62 13.7427 123.898 13.5242 124.246 13.3761C124.601 13.2279 125.009 13.1539 125.468 13.1539V14.7536C125.275 14.7388 125.146 14.7314 125.079 14.7314C124.583 14.7314 124.194 14.8721 123.912 15.1535C123.631 15.4275 123.49 15.8423 123.49 16.3977V19.2195H121.757V13.2427H123.412V14.0315Z" fill="white"/>
<path d="M120.152 13.2427V19.2195H118.508V18.5085C118.278 18.7677 118.004 18.9676 117.685 19.1084C117.367 19.2417 117.023 19.3083 116.652 19.3083C115.867 19.3083 115.245 19.0824 114.786 18.6307C114.327 18.1789 114.097 17.5086 114.097 16.6199V13.2427H115.83V16.3644C115.83 17.3272 116.234 17.8086 117.041 17.8086C117.456 17.8086 117.789 17.6753 118.041 17.4087C118.293 17.1346 118.419 16.731 118.419 16.1978V13.2427H120.152Z" fill="white"/>
<path d="M109.724 19.3527C109.109 19.3527 108.513 19.2712 107.935 19.1083C107.365 18.938 106.906 18.7195 106.558 18.4529L107.169 17.0976C107.502 17.342 107.898 17.5382 108.357 17.6863C108.816 17.8345 109.276 17.9085 109.735 17.9085C110.246 17.9085 110.623 17.8345 110.868 17.6863C111.112 17.5308 111.234 17.3271 111.234 17.0753C111.234 16.8902 111.16 16.7384 111.012 16.6199C110.872 16.494 110.686 16.394 110.457 16.3199C110.235 16.2459 109.931 16.1644 109.546 16.0755C108.953 15.9348 108.468 15.7941 108.091 15.6534C107.713 15.5126 107.387 15.2868 107.113 14.9757C106.846 14.6647 106.713 14.2499 106.713 13.7315C106.713 13.2797 106.835 12.8724 107.08 12.5095C107.324 12.1392 107.691 11.8466 108.179 11.6319C108.676 11.4171 109.279 11.3097 109.99 11.3097C110.486 11.3097 110.972 11.3689 111.446 11.4874C111.92 11.6059 112.334 11.7763 112.69 11.9985L112.134 13.3649C111.416 12.9575 110.698 12.7539 109.979 12.7539C109.476 12.7539 109.102 12.8353 108.857 12.9983C108.62 13.1612 108.502 13.376 108.502 13.6426C108.502 13.9092 108.639 14.1092 108.913 14.2425C109.194 14.3684 109.62 14.4943 110.19 14.6202C110.783 14.7609 111.268 14.9016 111.646 15.0424C112.023 15.1831 112.345 15.4053 112.612 15.7089C112.886 16.0126 113.023 16.4236 113.023 16.942C113.023 17.3864 112.897 17.7937 112.645 18.164C112.401 18.5269 112.031 18.8158 111.534 19.0305C111.038 19.2453 110.435 19.3527 109.724 19.3527Z" fill="white"/>
<path d="M105.063 19.3528L104.13 18.4863C103.389 19.0639 102.523 19.3528 101.53 19.3528C100.967 19.3528 100.46 19.2639 100.008 19.0861C99.5565 18.901 99.201 18.6455 98.9418 18.3196C98.69 17.9937 98.5641 17.6271 98.5641 17.2198C98.5641 16.7384 98.6974 16.3163 98.964 15.9534C99.238 15.5831 99.675 15.2313 100.275 14.898C99.9935 14.6092 99.7898 14.3351 99.6639 14.0759C99.538 13.8093 99.475 13.5353 99.475 13.2539C99.475 12.8761 99.575 12.5429 99.775 12.254C99.9749 11.9652 100.256 11.743 100.619 11.5875C100.99 11.4245 101.415 11.3431 101.897 11.3431C102.571 11.3431 103.111 11.506 103.519 11.8319C103.926 12.1503 104.13 12.5836 104.13 13.1316C104.13 13.5316 104.008 13.8871 103.763 14.1981C103.526 14.5092 103.141 14.8091 102.608 15.098L104.03 16.42C104.2 16.0645 104.33 15.6608 104.419 15.2091L105.807 15.6423C105.659 16.3311 105.422 16.9199 105.096 17.4087L106.007 18.253L105.063 19.3528ZM101.897 12.5206C101.638 12.5206 101.43 12.5873 101.275 12.7206C101.127 12.8539 101.053 13.0243 101.053 13.2316C101.053 13.3872 101.093 13.5353 101.175 13.676C101.256 13.8093 101.415 13.9908 101.652 14.2203C102.03 14.0204 102.293 13.8426 102.441 13.6871C102.589 13.5242 102.663 13.3501 102.663 13.165C102.663 12.9724 102.597 12.8169 102.463 12.6984C102.33 12.5799 102.141 12.5206 101.897 12.5206ZM101.652 17.9975C102.193 17.9975 102.678 17.8456 103.108 17.542L101.23 15.7867C100.882 15.9867 100.634 16.183 100.486 16.3755C100.338 16.5681 100.264 16.7866 100.264 17.031C100.264 17.3198 100.39 17.5531 100.641 17.7308C100.893 17.9086 101.23 17.9975 101.652 17.9975Z" fill="white"/>
<path d="M97.2134 19.3083C96.5394 19.3083 96.0136 19.1305 95.6359 18.7751C95.2582 18.4122 95.0693 17.9011 95.0693 17.242V10.9764H96.8023V17.142C96.8023 17.3938 96.8653 17.5901 96.9912 17.7308C97.1245 17.8641 97.3096 17.9308 97.5466 17.9308C97.6355 17.9308 97.7244 17.9197 97.8133 17.8974C97.9095 17.8752 97.9836 17.8493 98.0354 17.8197L98.1132 19.1639C97.8244 19.2602 97.5244 19.3083 97.2134 19.3083Z" fill="white"/>
<path d="M93.3186 19.3083C92.6447 19.3083 92.1188 19.1305 91.7411 18.7751C91.3634 18.4122 91.1746 17.9011 91.1746 17.242V10.9764H92.9076V17.142C92.9076 17.3938 92.9705 17.5901 93.0964 17.7308C93.2298 17.8641 93.4149 17.9308 93.6519 17.9308C93.7408 17.9308 93.8296 17.9197 93.9185 17.8974C94.0148 17.8752 94.0889 17.8493 94.1407 17.8197L94.2185 19.1639C93.9296 19.2602 93.6297 19.3083 93.3186 19.3083Z" fill="white"/>
<path d="M86.739 19.3083C86.1095 19.3083 85.5429 19.1787 85.0393 18.9195C84.5431 18.6529 84.1543 18.2863 83.8728 17.8197C83.5914 17.3531 83.4507 16.8236 83.4507 16.2311C83.4507 15.6386 83.5914 15.1091 83.8728 14.6425C84.1543 14.1759 84.5431 13.813 85.0393 13.5538C85.5429 13.2872 86.1095 13.1539 86.739 13.1539C87.3685 13.1539 87.9314 13.2872 88.4276 13.5538C88.9238 13.813 89.3126 14.1759 89.594 14.6425C89.8755 15.1091 90.0162 15.6386 90.0162 16.2311C90.0162 16.8236 89.8755 17.3531 89.594 17.8197C89.3126 18.2863 88.9238 18.6529 88.4276 18.9195C87.9314 19.1787 87.3685 19.3083 86.739 19.3083ZM86.739 17.8864C87.1834 17.8864 87.5463 17.7382 87.8277 17.442C88.1165 17.1383 88.2609 16.7347 88.2609 16.2311C88.2609 15.7275 88.1165 15.3276 87.8277 15.0313C87.5463 14.7277 87.1834 14.5758 86.739 14.5758C86.2946 14.5758 85.928 14.7277 85.6392 15.0313C85.3503 15.3276 85.2059 15.7275 85.2059 16.2311C85.2059 16.7347 85.3503 17.1383 85.6392 17.442C85.928 17.7382 86.2946 17.8864 86.739 17.8864Z" fill="white"/>
<path d="M79.3661 11.4431C80.0548 11.4431 80.651 11.5578 81.1546 11.7874C81.6657 12.017 82.0582 12.3429 82.3322 12.765C82.6062 13.1872 82.7432 13.6871 82.7432 14.2648C82.7432 14.835 82.6062 15.335 82.3322 15.7645C82.0582 16.1867 81.6657 16.5125 81.1546 16.7421C80.651 16.9643 80.0548 17.0754 79.3661 17.0754H77.7997V19.2195H76V11.4431H79.3661ZM79.2661 15.609C79.8067 15.609 80.2178 15.4942 80.4992 15.2646C80.7806 15.0276 80.9213 14.6943 80.9213 14.2648C80.9213 13.8278 80.7806 13.4945 80.4992 13.265C80.2178 13.028 79.8067 12.9095 79.2661 12.9095H77.7997V15.609H79.2661Z" fill="white"/>
</g>
<defs>
<clipPath id="clip0_23_28961">
<rect width="152" height="32" fill="white"/>
</clipPath>
</defs>
</svg>
