<svg width="38" height="38" viewBox="0 0 38 38" fill="none" xmlns="http://www.w3.org/2000/svg">
<g id="g87">
<g id="g89">
<g id="Clip path group">
<mask id="mask0_212_1679" style="mask-type:luminance" maskUnits="userSpaceOnUse" x="0" y="0" width="38" height="38">
<g id="clipPath95">
<path id="path93" d="M0.0534668 0.05336H37.9468V37.9466H0.0534668V0.05336Z" fill="white"/>
</g>
</mask>
<g mask="url(#mask0_212_1679)">
<g id="g91">
<g id="g97">
<path id="path99 (Stroke)" fill-rule="evenodd" clip-rule="evenodd" d="M16.0694 16.8236C16.2673 17.1284 16.606 17.3123 16.9694 17.3123H20.8279C21.4206 17.3123 21.9011 16.8318 21.9011 16.2391C21.9011 15.6465 21.4206 15.166 20.8279 15.166H19.0805C19.3538 14.8819 19.6567 14.5874 19.9759 14.2772C20.3935 13.8715 20.8466 13.428 21.1913 12.9907C21.513 12.5827 21.9011 11.9873 21.9011 11.2799C21.9011 9.60426 20.5428 8.24611 18.8675 8.24611C17.6104 8.24611 16.5326 9.01208 16.074 10.0997C15.8437 10.6458 16.0997 11.2752 16.6458 11.5055C17.1919 11.7358 17.8213 11.4798 18.0516 10.9336C18.1864 10.614 18.5028 10.3924 18.8675 10.3924C19.3525 10.3924 19.7468 10.7817 19.7547 11.2651C19.7518 11.2655 19.7248 11.3841 19.5058 11.6619C19.2644 11.9681 18.9176 12.313 18.4804 12.7378C18.4337 12.7832 18.3857 12.8296 18.3368 12.8769C17.5499 13.6388 16.4998 14.6555 15.989 15.8026C15.8412 16.1346 15.8715 16.5189 16.0694 16.8236Z" fill="#228BE6"/>
</g>
<g id="g101">
<path id="path103 (Stroke)" fill-rule="evenodd" clip-rule="evenodd" d="M3.57717 17.2663C4.16985 17.2663 4.65032 16.7859 4.65032 16.1932V9.34929C4.65032 8.91515 4.38875 8.52379 3.98763 8.35774C3.58651 8.19169 3.12485 8.28368 2.81801 8.59079L0.452414 10.9585C0.0335063 11.3777 0.0338038 12.0572 0.453078 12.4761C0.872353 12.895 1.55183 12.8947 1.97074 12.4755L2.50402 11.9417V16.1932C2.50402 16.7859 2.98449 17.2663 3.57717 17.2663Z" fill="#228BE6"/>
</g>
<g id="g105">
<path id="path107 (Stroke)" fill-rule="evenodd" clip-rule="evenodd" d="M0.617432 16.2304C0.617432 16.823 1.0979 17.3035 1.69058 17.3035H5.46267C6.05535 17.3035 6.53582 16.823 6.53582 16.2304C6.53582 15.6377 6.05535 15.1572 5.46267 15.1572H1.69058C1.0979 15.1572 0.617432 15.6377 0.617432 16.2304Z" fill="#228BE6"/>
</g>
<g id="g117">
<path id="path119" d="M10.2165 22.5596C10.2165 23.1382 9.74773 23.6073 9.16941 23.6073C8.5911 23.6073 8.12231 23.1382 8.12231 22.5596C8.12231 21.9809 8.5911 21.5118 9.16941 21.5118C9.74773 21.5118 10.2165 21.981 10.2165 22.5596Z" fill="#228BE6"/>
</g>
<g id="g121">
<path id="path123" d="M14.2502 22.5596C14.2502 23.1382 13.7814 23.6073 13.2031 23.6073C12.6248 23.6073 12.156 23.1382 12.156 22.5596C12.156 21.981 12.6248 21.5118 13.2031 21.5118C13.7814 21.5118 14.2502 21.981 14.2502 22.5596Z" fill="#228BE6"/>
</g>
<g id="g125">
<path id="path127" d="M25.6591 22.5596C25.6591 23.1382 25.1904 23.6073 24.612 23.6073C24.0337 23.6073 23.5649 23.1382 23.5649 22.5596C23.5649 21.9809 24.0337 21.5118 24.612 21.5118C25.1904 21.5118 25.6591 21.981 25.6591 22.5596Z" fill="#228BE6"/>
</g>
<g id="g129">
<path id="path131" d="M29.6928 22.5596C29.6928 23.1382 29.224 23.6073 28.6457 23.6073C28.0674 23.6073 27.5986 23.1382 27.5986 22.5596C27.5986 21.981 28.0674 21.5118 28.6457 21.5118C29.224 21.5118 29.6928 21.981 29.6928 22.5596Z" fill="#228BE6"/>
</g>
<g id="g133">
<path id="path135 (Stroke)" fill-rule="evenodd" clip-rule="evenodd" d="M15.1833 28.6806C15.1833 29.2733 15.6638 29.7537 16.2565 29.7537H21.777C22.3697 29.7537 22.8502 29.2733 22.8502 28.6806C22.8502 28.0879 22.3697 27.6074 21.777 27.6074H16.2565C15.6638 27.6074 15.1833 28.0879 15.1833 28.6806Z" fill="#228BE6"/>
</g>
<g id="g137">
<path id="path139 (Stroke)" fill-rule="evenodd" clip-rule="evenodd" d="M2.69712 24.9674C2.98206 24.9672 3.25524 24.8537 3.45644 24.652L7.31807 20.7794C7.73657 20.3597 7.73561 19.6802 7.31592 19.2617C6.89624 18.8432 6.21676 18.8442 5.79826 19.2639L2.69569 22.3752L1.92255 21.6016C1.50359 21.1824 0.824111 21.1822 0.404888 21.6011C-0.0143341 22.0201 -0.0145473 22.6996 0.404412 23.1188L1.93746 24.6528C2.13888 24.8543 2.41218 24.9675 2.69712 24.9674Z" fill="#228BE6"/>
</g>
<g id="g137_2">
<path id="path139 (Stroke)_2" fill-rule="evenodd" clip-rule="evenodd" d="M17.8324 24.9674C18.1173 24.9672 18.3905 24.8537 18.5917 24.652L22.4533 20.7794C22.8718 20.3597 22.8709 19.6802 22.4512 19.2617C22.0315 18.8432 21.352 18.8442 20.9335 19.2639L17.8309 22.3752L17.0578 21.6016C16.6388 21.1824 15.9594 21.1822 15.5401 21.6011C15.1209 22.0201 15.1207 22.6996 15.5397 23.1188L17.0727 24.6528C17.2741 24.8543 17.5474 24.9675 17.8324 24.9674Z" fill="#228BE6"/>
</g>
<g id="g137_3">
<path id="path139 (Stroke)_3" fill-rule="evenodd" clip-rule="evenodd" d="M32.9674 24.9674C33.2523 24.9672 33.5255 24.8537 33.7267 24.652L37.5883 20.7794C38.0068 20.3597 38.0059 19.6802 37.5862 19.2617C37.1665 18.8432 36.487 18.8442 36.0685 19.2639L32.966 22.3752L32.1928 21.6016C31.7739 21.1824 31.0944 21.1822 30.6752 21.6011C30.2559 22.0201 30.2557 22.6996 30.6747 23.1188L32.2077 24.6528C32.4091 24.8543 32.6824 24.9675 32.9674 24.9674Z" fill="#228BE6"/>
</g>
<g id="g141">
<path id="path143 (Stroke)" fill-rule="evenodd" clip-rule="evenodd" d="M34.5484 15.1908C34.1838 15.1908 33.8674 14.9691 33.7327 14.6496C33.5025 14.1035 32.8731 13.8474 32.3269 14.0776C31.7808 14.3079 31.5247 14.9373 31.755 15.4834C32.2135 16.5711 33.2915 17.3371 34.5484 17.3371C36.2505 17.3371 37.5359 15.9574 37.5817 14.3335L37.5817 14.3335C37.5964 13.811 37.4918 13.0187 37.0084 12.3239C36.7872 12.0059 36.5034 11.733 36.1576 11.5233L37.2933 9.99375C37.5351 9.66814 37.5726 9.23406 37.3904 8.87177C37.2082 8.50948 36.8372 8.28086 36.4317 8.28086H33.1031C32.5104 8.28086 32.0299 8.76133 32.0299 9.35401C32.0299 9.9467 32.5104 10.4272 33.1031 10.4272H34.2983L33.5038 11.4972C33.262 11.8228 33.2245 12.2569 33.4067 12.6192C33.589 12.9815 33.9599 13.2101 34.3654 13.2101C34.9527 13.2101 35.152 13.4137 35.2466 13.5497C35.3854 13.7492 35.4428 14.0401 35.4362 14.2731M34.5484 15.1908C35.0116 15.1908 35.421 14.8143 35.4362 14.2731L34.5484 15.1908Z" fill="#228BE6"/>
</g>
</g>
</g>
</g>
</g>
</g>
</svg>
