<svg width="38" height="38" viewBox="0 0 38 38" fill="none" xmlns="http://www.w3.org/2000/svg">
<g id="stars 1">
<path id="Vector" d="M26.9668 13.9647L27.8818 12.3911L29.5795 15.0148C29.7396 15.2618 29.9866 15.441 30.2707 15.5169L33.2592 16.2359L31.297 18.6614C31.1126 18.8893 31.0187 19.178 31.0338 19.4708L31.2657 22.5329L28.3549 21.4196C28.0812 21.3153 27.7786 21.3147 27.5049 21.4202L27.3048 21.4971L27.0746 21.5855C26.4623 21.8209 26.1562 22.5074 26.3916 23.1197C26.6259 23.7326 27.3135 24.0376 27.9258 23.8028L27.9316 23.8004L30.4145 24.7502C30.687 24.8552 30.9711 24.9068 31.2529 24.9068C31.7296 24.9068 32.2015 24.7595 32.6016 24.4725C33.2406 24.0132 33.6036 23.2687 33.5711 22.4662L33.4296 19.8008L35.1053 17.7307C35.604 17.1144 35.7559 16.2974 35.5101 15.5448C35.2654 14.7956 34.6635 14.2274 33.9039 14.0268L31.3248 13.3397L29.8694 11.0905C29.4357 10.4353 28.7109 10.0456 27.927 10.0456C27.9224 10.0456 27.9177 10.0456 27.9142 10.0456C27.1303 10.0497 26.409 10.4445 25.9834 11.1038L24.9699 12.6798C24.615 13.2318 24.775 13.9665 25.3259 14.3213C25.5833 14.4862 25.8788 14.5294 26.158 14.484C26.4788 14.4319 26.7777 14.2596 26.9668 13.9647Z" fill="#FAB005"/>
<path id="Vector_2" d="M9.64494 21.4196L6.80143 22.5915L6.9661 19.4708C6.98118 19.178 6.88725 18.8893 6.70286 18.6614L4.70823 16.3217L7.72917 15.5169C8.01328 15.441 8.26029 15.2618 8.42033 15.0148L10.0195 12.3876L11.0331 13.9647C11.2222 14.2595 11.521 14.4322 11.8418 14.4845C12.121 14.5299 12.4165 14.4867 12.674 14.3213C13.2248 13.9665 13.3849 13.2318 13.03 12.6798L12.0153 11.1009C11.5909 10.4445 10.8695 10.0497 10.0856 10.0456C10.0821 10.0456 10.0775 10.0456 10.0729 10.0456C9.28892 10.0456 8.56413 10.4353 8.12345 11.1003L6.67503 13.3397L4.09825 14.0262C3.33634 14.2274 2.73448 14.7956 2.48979 15.5448C2.24394 16.2974 2.39585 17.1144 2.8945 17.7296L4.57023 19.8008L4.42875 22.4802C4.39628 23.2687 4.75926 24.0132 5.39823 24.4725C5.79948 24.7595 6.2703 24.9068 6.74809 24.9068C7.02873 24.9068 7.31169 24.8557 7.58305 24.7514L10.0682 23.8004L10.074 23.8028C10.6875 24.0376 11.374 23.7326 11.6083 23.1197C11.8437 22.5074 11.5375 21.8209 10.9252 21.5855L10.695 21.4971L10.495 21.4202C10.2225 21.3147 9.91978 21.3153 9.64494 21.4196Z" fill="#FAB005"/>
<path id="Vector_3" d="M10.2469 17.1811C9.98134 17.998 10.146 18.8835 10.6864 19.5497L10.9586 19.8858L12.7228 22.0644L12.5523 25.2964C12.5071 26.1534 12.8944 26.9663 13.5891 27.4708C14.2849 27.9758 15.1767 28.0935 15.978 27.7856L19.0001 26.6254L22.0222 27.7856C22.3167 27.8987 22.624 27.9544 22.929 27.9544C23.4532 27.9544 23.9716 27.7897 24.4111 27.4708C25.1057 26.9663 25.4931 26.1534 25.4478 25.297L25.2774 22.0644L27.0415 19.8852L27.3126 19.5503C27.8541 18.8835 28.0188 17.998 27.7533 17.1811C27.5268 16.485 27.0098 15.9488 26.3511 15.6636C26.2372 15.6142 26.1279 15.556 26.0056 15.5233L22.8792 14.6855L21.1176 11.9713C20.6491 11.2517 19.8582 10.822 19.0001 10.822C18.1419 10.822 17.351 11.2517 16.8825 11.9718L15.121 14.6855L11.9957 15.5227C11.8729 15.5556 11.7633 15.6139 11.649 15.6635C10.99 15.9491 10.4732 16.4853 10.2469 17.1811ZM12.5059 17.9151C12.5303 17.838 12.5894 17.8224 12.6091 17.8171L16.1763 16.8616C16.4604 16.7856 16.7051 16.6076 16.8651 16.3612L18.8748 13.2654C18.8957 13.2318 19.1044 13.2324 19.1253 13.2649L21.135 16.3612C21.2951 16.6076 21.5398 16.7856 21.8239 16.8616L25.3922 17.8171C25.4107 17.8224 25.4699 17.838 25.4942 17.9151C25.5197 17.9917 25.4815 18.0386 25.4675 18.0549L23.1447 20.9239C22.9603 21.1523 22.8664 21.4405 22.8815 21.7333L23.0752 25.4217C23.0763 25.4414 23.0798 25.5023 23.0148 25.5498C22.9464 25.5979 22.8908 25.5742 22.8734 25.5684L19.4257 24.2446C19.2888 24.1918 19.1439 24.1657 19.0001 24.1657C18.8563 24.1657 18.7113 24.1918 18.5745 24.2446L15.1268 25.5684C15.1094 25.5753 15.0537 25.5991 14.9853 25.5498C14.9204 25.5023 14.9238 25.4414 14.925 25.4211L15.1187 21.7333C15.1337 21.4405 15.0398 21.1523 14.8554 20.9239L12.5315 18.0543C12.5187 18.0386 12.4804 17.9917 12.5059 17.9151Z" fill="#FAB005"/>
</g>
</svg>
