<svg width="181" height="180" viewBox="0 0 181 180" fill="none" xmlns="http://www.w3.org/2000/svg">
<g id="party 1">
<g id="Group">
<g id="_4.-flat--EXP-">
<g id="Group_2">
<g id="Group_3">
<path id="Vector" fill-rule="evenodd" clip-rule="evenodd" d="M68.84 49.0126L131.801 111.973C124.799 118.273 78.7596 133.683 39.3835 147.571C37.6303 148.197 35.6756 147.759 34.3587 146.446C33.0403 145.131 32.5962 143.176 33.2193 141.423C46.4081 103.9 62.8025 57.0238 68.84 49.0126Z" fill="#6DABFB"/>
</g>
<g id="Group_4">
<path id="Vector_2" d="M131.801 111.973C137.518 106.256 128.059 87.5269 110.673 70.1408C93.2865 52.7547 74.5574 43.2953 68.84 49.0127C63.1225 54.7301 72.5819 73.4592 89.9681 90.8454C107.354 108.232 126.083 117.691 131.801 111.973Z" fill="#5678CD"/>
</g>
<g id="Group_5">
<path id="Vector_3" fill-rule="evenodd" clip-rule="evenodd" d="M57.3301 74.3177C69.6256 101.957 98.2782 118.283 116.816 119.428C109.277 122.55 99.5456 126.187 88.7603 130.068C73.5831 120.674 59.0155 104.583 52.3034 87.6294C54.0434 82.9283 55.7272 78.4553 57.3301 74.3177Z" fill="#F86394"/>
</g>
<g id="Group_6">
<path id="Vector_4" fill-rule="evenodd" clip-rule="evenodd" d="M43.9473 110.695C50.6462 122.804 61.633 131.494 71.9489 136.04C66.9339 137.803 61.8296 139.589 56.7237 141.374C50.1273 135.706 44.2249 128.538 40.3187 120.914C41.5249 117.503 42.7378 114.086 43.9473 110.695Z" fill="#F86394"/>
</g>
<g id="Group_7">
<path id="Vector_5" fill-rule="evenodd" clip-rule="evenodd" d="M47.5826 122.173L66.7488 77.4012C67.0435 76.7165 66.7246 75.9226 66.0399 75.6297C65.3552 75.3367 64.5613 75.6539 64.2683 76.3386L45.1004 121.111C44.8075 121.795 45.1264 122.589 45.8111 122.882C46.4958 123.177 47.2897 122.858 47.5826 122.173Z" fill="white"/>
</g>
<g id="Group_8">
<path id="Vector_6" fill-rule="evenodd" clip-rule="evenodd" d="M138.632 80.8741C138.904 80.1715 139.578 79.7032 140.332 79.7032C141.087 79.7032 141.761 80.1715 142.028 80.8741C143.358 84.368 144.979 88.6395 144.979 88.6395C145.274 89.417 145.733 90.1195 146.318 90.7096C146.904 91.2951 147.611 91.7494 148.388 92.0445C148.388 92.0445 152.66 93.6697 156.154 94.9998C156.856 95.2668 157.325 95.9412 157.325 96.6953C157.325 97.4493 156.856 98.1238 156.154 98.3907C152.66 99.7209 148.388 101.346 148.388 101.346C147.611 101.641 146.904 102.095 146.318 102.681C145.733 103.271 145.274 103.974 144.979 104.751C144.979 104.751 143.358 109.023 142.028 112.516C141.761 113.219 141.087 113.687 140.332 113.687C139.578 113.687 138.904 113.219 138.632 112.516C137.307 109.023 135.682 104.751 135.682 104.751C135.387 103.974 134.932 103.271 134.342 102.681C133.757 102.095 133.054 101.641 132.277 101.346C132.277 101.346 128.005 99.7209 124.511 98.3907C123.804 98.1238 123.34 97.4493 123.34 96.6953C123.34 95.9412 123.804 95.2668 124.511 94.9998C128.005 93.6697 132.277 92.0445 132.277 92.0445C133.054 91.7494 133.757 91.2951 134.342 90.7096C134.932 90.1195 135.387 89.417 135.682 88.6395C135.682 88.6395 137.307 84.368 138.632 80.8741Z" fill="#FDBE00"/>
</g>
<g id="Group_9">
<path id="Vector_7" fill-rule="evenodd" clip-rule="evenodd" d="M42.0565 71.4179C42.2423 70.9322 42.7085 70.6094 43.2301 70.6094C43.7516 70.6094 44.2178 70.9322 44.4036 71.4179C45.3294 73.8562 46.4638 76.8454 46.4638 76.8454C46.6691 77.3866 46.9886 77.8755 47.3961 78.2863C47.8036 78.6937 48.2958 79.0099 48.8369 79.2153C48.8369 79.2153 51.8261 80.353 54.2645 81.2788C54.7502 81.4646 55.0729 81.9307 55.0729 82.4523C55.0729 82.9739 54.7502 83.44 54.2645 83.6258C51.8261 84.5516 48.8369 85.6893 48.8369 85.6893C48.2958 85.8946 47.8036 86.2108 47.3961 86.6183C46.9886 87.029 46.6691 87.518 46.4638 88.0591C46.4638 88.0591 45.3294 91.0484 44.4036 93.4867C44.2178 93.9724 43.7516 94.2951 43.2301 94.2951C42.7085 94.2951 42.2423 93.9724 42.0565 93.4867C41.1307 91.0484 39.9931 88.0591 39.9931 88.0591C39.7877 87.518 39.4715 87.029 39.0608 86.6183C38.6533 86.2108 38.1643 85.8946 37.6232 85.6893C37.6232 85.6893 34.6307 84.5516 32.1956 83.6258C31.7099 83.44 31.3872 82.9739 31.3872 82.4523C31.3872 81.9307 31.7099 81.4646 32.1956 81.2788C34.6307 80.353 37.6232 79.2153 37.6232 79.2153C38.1643 79.0099 38.6533 78.6937 39.0608 78.2863C39.4715 77.8755 39.7877 77.3866 39.9931 76.8454C39.9931 76.8454 41.1307 73.8562 42.0565 71.4179Z" fill="#FDBE00"/>
</g>
<g id="Group_10">
<path id="Vector_8" fill-rule="evenodd" clip-rule="evenodd" d="M80.7085 27.9039C80.8424 27.5539 81.1783 27.3214 81.5542 27.3214C81.93 27.3214 82.2659 27.5539 82.3998 27.9039C83.0669 29.661 83.8844 31.815 83.8844 31.815C84.0324 32.2049 84.2626 32.5573 84.5562 32.8533C84.8498 33.1469 85.2045 33.3748 85.5945 33.5227C85.5945 33.5227 87.7485 34.3425 89.5055 35.0097C89.8555 35.1435 90.0881 35.4795 90.0881 35.8553C90.0881 36.2311 89.8555 36.567 89.5055 36.7009C87.7485 37.3681 85.5945 38.1879 85.5945 38.1879C85.2045 38.3358 84.8498 38.5637 84.5562 38.8573C84.2626 39.1533 84.0324 39.5056 83.8844 39.8956C83.8844 39.8956 83.0669 42.0496 82.3998 43.8067C82.2659 44.1567 81.93 44.3892 81.5542 44.3892C81.1783 44.3892 80.8424 44.1567 80.7085 43.8067C80.0414 42.0496 79.2216 39.8956 79.2216 39.8956C79.0736 39.5056 78.8458 39.1533 78.5498 38.8573C78.2562 38.5637 77.9038 38.3358 77.5139 38.1879C77.5139 38.1879 75.3575 37.3681 73.6028 36.7009C73.2528 36.567 73.0203 36.2311 73.0203 35.8553C73.0203 35.4795 73.2528 35.1435 73.6028 35.0097C75.3575 34.3425 77.5139 33.5227 77.5139 33.5227C77.9038 33.3748 78.2562 33.1469 78.5498 32.8533C78.8458 32.5573 79.0736 32.2049 79.2216 31.815C79.2216 31.815 80.0414 29.661 80.7085 27.9039Z" fill="#F86394"/>
</g>
<g id="Group_11">
<path id="Vector_9" fill-rule="evenodd" clip-rule="evenodd" d="M106.787 96.3288C107.853 92.6799 110.831 82.8143 116.464 76.2828C116.95 75.7194 116.888 74.8657 116.323 74.3806C115.76 73.8938 114.908 73.9566 114.42 74.5217C108.499 81.3874 105.318 91.7361 104.196 95.5731C103.988 96.2877 104.398 97.038 105.113 97.2471C105.827 97.4545 106.577 97.0435 106.787 96.3288Z" fill="#FDBE00"/>
</g>
<g id="Group_12">
<path id="Vector_10" fill-rule="evenodd" clip-rule="evenodd" d="M124.344 68.0661C120.439 68.9339 117.146 71.3618 114.42 74.5217C113.934 75.0851 113.997 75.9373 114.561 76.4239C115.126 76.9106 115.978 76.8462 116.464 76.2828C118.358 74.0878 120.555 72.2714 123.102 71.2662C122.876 72.3937 122.907 73.4734 123.233 74.4654C123.735 75.9951 124.898 76.8699 126.404 77.2015C127.624 77.4704 129.103 77.3533 130.533 76.9488C132.191 76.4782 133.779 75.628 134.803 74.6769C135.703 73.84 136.187 72.891 136.221 72.0145C136.256 71.1331 135.909 70.2339 134.88 69.4735C133.898 68.7457 132.07 68.0896 129.042 67.7927C128.618 67.7513 128.199 67.7271 127.785 67.7199C128.032 67.3844 128.298 67.0473 128.577 66.7108C132.045 62.5237 137.622 58.4583 141.24 56.4756C141.893 56.1177 142.133 55.2967 141.775 54.6439C141.418 53.991 140.597 53.7514 139.944 54.1093C135.442 56.5751 128.116 62.0944 124.81 67.2861C124.644 67.5459 124.489 67.8064 124.344 68.0661ZM126.148 70.4984L126.09 70.6325C125.666 71.6975 125.497 72.7101 125.797 73.6214C125.978 74.1763 126.439 74.4456 126.986 74.5656C127.819 74.75 128.823 74.6278 129.799 74.3519C131.024 74.005 132.209 73.4033 132.966 72.7001C133.255 72.4327 133.513 72.1919 133.525 71.9104C133.528 71.8368 133.452 71.7923 133.379 71.7269C133.265 71.6268 133.121 71.5325 132.948 71.4407C132.11 70.9969 130.762 70.6722 128.778 70.4776C127.869 70.3891 126.991 70.3998 126.148 70.4984Z" fill="#7B5885"/>
</g>
<g id="Group_13">
<path id="Vector_11" fill-rule="evenodd" clip-rule="evenodd" d="M96.8727 54.5271C96.3577 52.817 95.5724 51.4951 94.7154 50.7082C93.6364 49.7161 92.4159 49.4381 91.2468 49.8671C90.2935 50.2153 89.2748 51.1355 88.489 52.9274C87.5259 55.1239 87.2109 56.778 87.2942 57.9346C87.3767 59.0366 87.7921 59.8068 88.3722 60.3209C89.25 61.1004 90.6561 61.3445 92.3484 60.838C93.1094 60.61 93.9448 60.2286 94.8087 59.7101C94.6545 63.7858 92.9109 68.7924 88.2687 73.1224C87.7238 73.6312 87.6965 74.4862 88.2046 75.0295C88.7133 75.5743 89.5692 75.6039 90.1125 75.0973C96.1843 69.4308 97.8339 62.7262 97.4544 57.7409C97.8629 57.3769 98.2642 56.9864 98.6588 56.5707C101.728 53.3271 104.206 48.6027 103.85 43.4462C103.799 42.7014 103.153 42.1407 102.41 42.1906C101.666 42.2427 101.104 42.8864 101.156 43.6304C101.406 47.258 99.9504 50.6133 97.9667 53.2198C97.6162 53.6797 97.2502 54.1159 96.8727 54.5271ZM94.6049 56.6044C94.4241 55.5959 94.1376 54.7058 93.7777 53.9723C93.5149 53.4371 93.2184 52.9981 92.8882 52.6946C92.705 52.5253 92.5254 52.3924 92.3271 52.3777C92.1146 52.3629 91.9349 52.5182 91.735 52.7355C91.4578 53.0387 91.2032 53.4642 90.964 54.0111C90.3458 55.4172 90.031 56.5209 89.9862 57.3667C89.9634 57.8018 89.9643 58.1255 90.1644 58.3025C90.288 58.4108 90.4684 58.4148 90.6675 58.412C90.9437 58.4074 91.248 58.3499 91.5731 58.2524C92.4976 57.9745 93.5458 57.4054 94.6049 56.6044Z" fill="#FDBE00"/>
</g>
<g id="Group_14">
<path id="Vector_12" fill-rule="evenodd" clip-rule="evenodd" d="M137.654 46.4673C131.322 46.8016 125.252 50.6077 121.471 56.3464C121.061 56.9689 121.234 57.8063 121.856 58.2166C122.479 58.6264 123.317 58.4544 123.727 57.8319C127.02 52.8304 132.277 49.4565 137.796 49.1649C138.54 49.1266 139.113 48.4893 139.073 47.7445C139.035 47.0011 138.399 46.429 137.654 46.4673Z" fill="#FDBE00"/>
</g>
<g id="Group_15">
<path id="Vector_13" fill-rule="evenodd" clip-rule="evenodd" d="M111.002 61.298C116.454 52.5073 118.724 41.9285 111.531 32.2342C111.088 31.635 110.242 31.509 109.643 31.9536C109.045 32.3959 108.92 33.2424 109.363 33.8416C115.805 42.5277 113.591 51.9984 108.706 59.8761C108.316 60.5086 108.51 61.3408 109.144 61.7332C109.776 62.1255 110.611 61.9305 111.002 61.298Z" fill="#7B5885"/>
</g>
<g id="Group_16">
<path id="Vector_14" d="M135.464 43.2198C137.922 43.2198 139.915 41.2269 139.915 38.7686C139.915 36.3102 137.922 34.3173 135.464 34.3173C133.005 34.3173 131.012 36.3102 131.012 38.7686C131.012 41.2269 133.005 43.2198 135.464 43.2198Z" fill="#FDBE00"/>
</g>
<g id="Group_17">
<path id="Vector_15" d="M50.4299 53.5986C52.8883 53.5986 54.8812 51.6057 54.8812 49.1474C54.8812 46.689 52.8883 44.6961 50.4299 44.6961C47.9715 44.6961 45.9786 46.689 45.9786 49.1474C45.9786 51.6057 47.9715 53.5986 50.4299 53.5986Z" fill="#FDBE00"/>
</g>
<g id="Group_18">
<path id="Vector_16" d="M120.585 136.894C123.043 136.894 125.036 134.901 125.036 132.442C125.036 129.984 123.043 127.991 120.585 127.991C118.127 127.991 116.134 129.984 116.134 132.442C116.134 134.901 118.127 136.894 120.585 136.894Z" fill="#F86394"/>
</g>
</g>
</g>
</g>
</g>
</svg>
