<svg width="66" height="65" viewBox="0 0 66 65" fill="none" xmlns="http://www.w3.org/2000/svg">
<g id="tap 1" clip-path="url(#clip0_25_10784)">
<path id="Vector" d="M18.0202 33.8837C18.0202 36.326 16.1724 38.3051 13.8923 38.3051L13.8005 38.3051C11.5253 38.3051 9.67793 36.334 9.67259 33.896C9.65338 25.9197 9.66566 25.1369 9.67686 13.2238C9.6838 6.5346 14.7477 1.11697 20.9913 1.11697L34.3975 1.11697C38.4998 1.11697 42.2819 3.49682 44.2808 7.33501L56.2334 30.299L54.9848 31.3347C52.399 33.7113 48.5101 33.4189 46.2599 30.6805L42.9148 26.6081L42.8956 54.6236C42.8939 57.0648 41.0461 59.0429 38.7676 59.0429L38.766 59.0429C36.486 59.0429 34.6381 57.0622 34.6381 54.6199L34.6381 37.6648C34.5831 40.0553 32.7572 41.972 30.5128 41.972L30.4157 41.972C28.1357 41.972 26.2873 39.9923 26.2873 37.5501L26.2873 36.1264C26.2873 38.5692 24.4394 40.5484 22.1583 40.5484L22.1487 40.5484C19.8686 40.5484 18.0202 38.5692 18.0202 36.1264L18.0202 33.8837Z" fill="#F7CAA5"/>
<g id="Group">
<path id="Vector_2" d="M13.8006 39.3424L13.8924 39.3424C15.1389 39.3483 16.3427 38.8899 17.269 38.0564C18.0187 40.1332 19.9247 41.6273 22.1584 41.6273C23.5281 41.6177 24.8354 41.0547 25.7842 40.066C26.6556 41.8317 28.4036 43.0307 30.4158 43.0307L30.5129 43.0307C31.5881 43.0488 32.6388 42.7046 33.4947 42.0531L33.4947 54.6199C33.4947 57.6609 35.8623 60.1357 38.7421 60.1357C41.6193 60.1357 43.9741 57.663 43.9757 54.6247L43.9991 29.6571L45.4126 31.3736C46.6517 32.9157 48.4755 33.873 50.4477 34.0176C52.3809 34.1505 54.2832 33.4776 55.7026 32.1586L56.9309 31.1399C57.3274 30.8118 57.4405 30.251 57.203 29.7942L45.2504 6.81794C43.0648 2.61959 38.9059 0.00014907 34.3981 0.000148676L20.9919 0.000147504C14.1576 0.000146907 8.59162 5.9327 8.58415 13.2105C8.58095 16.5097 8.57828 18.9616 8.57561 20.9423C8.56868 26.1673 8.56654 28.0979 8.58041 33.8666C8.58682 36.9001 10.9288 39.3424 13.8006 39.3424ZM10.7607 20.9514C10.7634 18.9707 10.7666 16.5129 10.7698 13.2137C10.7762 7.1397 15.3614 2.18683 20.9914 2.18683L34.3975 2.18684C38.0879 2.18684 41.5035 4.35539 43.3113 7.82805L54.8568 30.0151L54.2875 30.4905C54.2736 30.5023 54.2592 30.5162 54.2453 30.5284C53.2651 31.4516 51.9455 31.9254 50.6019 31.8368C49.23 31.7322 47.9632 31.0615 47.1047 29.9863L43.7595 25.9144C43.4666 25.5574 42.9816 25.4235 42.5467 25.5788C42.1123 25.7346 41.8226 26.146 41.822 26.6075L41.8028 54.6231C41.8018 56.4576 40.4149 57.9501 38.741 57.9501C37.0671 57.9501 35.6803 56.456 35.6803 54.6199L35.6803 37.6744C35.6803 37.6333 35.683 37.5927 35.683 37.5511C35.683 37.5335 35.6803 37.5159 35.6803 37.4983L35.6803 30.2515C35.6803 29.648 35.191 29.1587 34.5875 29.1587C33.984 29.1587 33.4947 29.648 33.4947 30.2515L33.4947 37.6456C33.4947 39.4289 32.1426 40.845 30.5129 40.845L30.4158 40.845C28.7419 40.845 27.3476 39.3856 27.3476 37.5501L27.3476 30.9414C27.3476 30.3374 26.8583 29.8486 26.2548 29.8486C25.6513 29.8486 25.162 30.3374 25.162 30.9414L25.162 36.1264C25.162 37.962 23.8355 39.4555 22.1514 39.4555C20.4775 39.4555 19.1515 37.962 19.1515 36.1264L19.1515 31.2349C19.1515 30.6314 18.6622 30.1421 18.0587 30.1421C17.4552 30.1421 16.9659 30.6314 16.9659 31.2349L16.9659 33.8837C16.9659 35.7193 15.5663 37.1568 13.8924 37.1568L13.8006 37.1568C12.1315 37.1568 10.7698 35.6958 10.7655 33.865C10.7516 28.1 10.7543 26.1737 10.7607 20.9514Z" fill="#083863"/>
<path id="Vector_3" d="M47.4472 54.1482C46.8437 54.1482 46.3544 54.6375 46.3544 55.241C46.3544 59.4239 42.9639 62.8144 38.781 62.8144C34.5987 62.8144 31.2082 59.4239 31.2082 55.241C31.2082 54.6375 30.7189 54.1482 30.1154 54.1482C29.5114 54.1482 29.0226 54.6375 29.0226 55.241C29.0226 60.6309 33.3917 65 38.781 65C44.1709 65 48.54 60.6309 48.54 55.241C48.54 54.6375 48.0507 54.1482 47.4472 54.1482Z" fill="#083863"/>
</g>
</g>
<defs>
<clipPath id="clip0_25_10784">
<rect width="65" height="65" fill="white" transform="translate(65.5 65) rotate(-180)"/>
</clipPath>
</defs>
</svg>
