<svg width="38" height="38" viewBox="0 0 38 38" fill="none" xmlns="http://www.w3.org/2000/svg">
<g id="Group 1">
<path id="path1782 (Stroke)" fill-rule="evenodd" clip-rule="evenodd" d="M12.6433 33.8288C12.6433 34.4452 13.1416 34.9449 13.7562 34.9449H23.9712C24.5858 34.9449 25.0841 34.4452 25.0841 33.8288V29.3644C25.0841 28.748 24.5858 28.2483 23.9712 28.2483H22.2024V12.4743H24.9981V14.9059C24.9981 15.5223 25.4963 16.022 26.111 16.022H30.5626C31.1772 16.022 31.6755 15.5223 31.6755 14.9059V6.89384C31.6755 6.27744 31.1772 5.77775 30.5626 5.77775H7.1649C6.55026 5.77775 6.052 6.27744 6.052 6.89384V14.9059C6.052 15.5223 6.55026 16.022 7.1649 16.022H11.6165C12.2311 16.022 12.7294 15.5223 12.7294 14.9059V12.4743H15.525V28.2483H13.7562C13.1416 28.2483 12.6433 28.748 12.6433 29.3644V33.8288ZM14.8691 32.7127V30.4805H16.6379C17.2525 30.4805 17.7508 29.9808 17.7508 29.3644V11.3582C17.7508 10.7418 17.2525 10.2421 16.6379 10.2421H11.6165C11.0019 10.2421 10.5036 10.7418 10.5036 11.3582V13.7899H8.2778V8.00993H29.4497V13.7899H27.2239V11.3582C27.2239 10.7418 26.7256 10.2421 26.111 10.2421H21.0895C20.4749 10.2421 19.9766 10.7418 19.9766 11.3582V29.3644C19.9766 29.9808 20.4749 30.4805 21.0895 30.4805H22.8583V32.7127H14.8691Z" fill="black"/>
<path id="path1786 (Stroke)" fill-rule="evenodd" clip-rule="evenodd" d="M1.16452 8.50363C1.77734 8.50363 2.27412 8.00685 2.27412 7.39404V2.27253H7.39563C8.00844 2.27253 8.50522 1.77575 8.50522 1.16294C8.50522 0.550125 8.00844 0.0533438 7.39563 0.0533438H1.16452C0.551713 0.0533438 0.0549316 0.550125 0.0549316 1.16294V7.39404C0.0549316 8.00685 0.551713 8.50363 1.16452 8.50363Z" fill="black"/>
<path id="path1790 (Stroke)" fill-rule="evenodd" clip-rule="evenodd" d="M36.8353 8.50363C37.4481 8.50363 37.9449 8.00685 37.9449 7.39404V1.16294C37.9449 0.550125 37.4481 0.0533438 36.8353 0.0533438H30.6042C29.9914 0.0533438 29.4946 0.550125 29.4946 1.16294C29.4946 1.77575 29.9914 2.27253 30.6042 2.27253H35.7257V7.39404C35.7257 8.00685 36.2225 8.50363 36.8353 8.50363Z" fill="black"/>
<path id="path1794 (Stroke)" fill-rule="evenodd" clip-rule="evenodd" d="M29.4946 36.8338C29.4946 37.4466 29.9914 37.9434 30.6042 37.9434H36.8353C37.4481 37.9434 37.9449 37.4466 37.9449 36.8338V30.6027C37.9449 29.9899 37.4481 29.4931 36.8353 29.4931C36.2225 29.4931 35.7257 29.9899 35.7257 30.6027V35.7242H30.6042C29.9914 35.7242 29.4946 36.221 29.4946 36.8338Z" fill="black"/>
<path id="path1798 (Stroke)" fill-rule="evenodd" clip-rule="evenodd" d="M0.0549316 36.8338C0.0549316 37.4466 0.551713 37.9434 1.16452 37.9434H7.39563C8.00844 37.9434 8.50522 37.4466 8.50522 36.8338C8.50522 36.221 8.00844 35.7242 7.39563 35.7242H2.27412V30.6027C2.27412 29.9899 1.77734 29.4931 1.16452 29.4931C0.551713 29.4931 0.0549316 29.9899 0.0549316 30.6027V36.8338Z" fill="black"/>
</g>
</svg>
