<svg width="38" height="38" viewBox="0 0 38 38" fill="none" xmlns="http://www.w3.org/2000/svg">
<g id="wirte 1">
<g id="Layer_3">
<path id="Vector" d="M26.1096 7.81019H10.6591C10.0689 7.81019 9.59033 8.28875 9.59033 8.87894C9.59033 9.46913 10.0689 9.94769 10.6591 9.94769H26.1108C26.701 9.94769 27.1796 9.46913 27.1796 8.87894C27.1796 8.28875 26.6998 7.81019 26.1096 7.81019Z" fill="#12B886"/>
<path id="Vector_2" d="M27.1784 14.9043C27.1784 14.3141 26.6998 13.8356 26.1096 13.8356H10.6591C10.0689 13.8356 9.59033 14.3141 9.59033 14.9043C9.59033 15.4945 10.0689 15.9731 10.6591 15.9731H26.1108C26.6998 15.9731 27.1784 15.4945 27.1784 14.9043Z" fill="#12B886"/>
<path id="Vector_3" d="M10.6591 19.8621C10.0689 19.8621 9.59033 20.3407 9.59033 20.9309C9.59033 21.5211 10.0689 21.9996 10.6591 21.9996H18.442C19.0321 21.9996 19.5107 21.5211 19.5107 20.9309C19.5107 20.3407 19.0321 19.8621 18.442 19.8621H10.6591Z" fill="#12B886"/>
<path id="Vector_4" d="M13.4342 34.5562H6.82102C5.90902 34.5562 5.16802 33.8141 5.16802 32.9032V5.09675C5.16802 4.18475 5.9102 3.44375 6.82102 3.44375H29.9488C30.8596 3.44375 31.6018 4.18594 31.6018 5.09675V15.2439C31.6018 15.8341 32.0803 16.3127 32.6705 16.3127C33.2607 16.3127 33.7393 15.8341 33.7393 15.2439V5.09675C33.7393 3.00675 32.0388 1.30625 29.95 1.30625H6.82102C4.73102 1.30625 3.03052 3.00675 3.03052 5.09675V32.9032C3.03052 34.9932 4.73102 36.6938 6.82102 36.6938H13.4342C14.0244 36.6938 14.503 36.2152 14.503 35.625C14.503 35.0348 14.0244 34.5562 13.4342 34.5562Z" fill="#12B886"/>
<path id="Vector_5" d="M33.8046 20.0854C32.2537 18.5333 29.7279 18.5333 28.1782 20.0854L18.3516 29.9119C18.0405 30.2231 17.8362 30.6173 17.7626 31.0507L17.2259 34.2368C17.1119 34.9077 17.3316 35.5953 17.8125 36.0762C18.2091 36.4741 18.7494 36.6937 19.3028 36.6937C19.4192 36.6937 19.5356 36.6842 19.6519 36.6641L22.8356 36.1261C23.2702 36.0537 23.6657 35.8506 23.9768 35.5383L33.8034 25.7117C35.3554 24.1609 35.3554 21.6362 33.8046 20.0854ZM22.4829 34.0183L19.3337 34.5919L19.8621 31.4224L26.9337 24.3509L29.5391 26.9562L22.4829 34.0183ZM32.2929 24.2001L31.0496 25.4446L28.4442 22.8392L29.6887 21.5947C30.0473 21.2361 30.5199 21.0567 30.9914 21.0567C31.4628 21.0567 31.9342 21.2361 32.2941 21.5947C33.0113 22.3143 33.0113 23.4816 32.2929 24.2001Z" fill="#12B886"/>
</g>
</g>
</svg>
